<?xml version="1.0" encoding="UTF-8" standalone="no"?>
<!DOCTYPE svg PUBLIC "-//W3C//DTD SVG 1.1//EN" "http://www.w3.org/Graphics/SVG/1.1/DTD/svg11.dtd">
<svg width="100%" height="100%" viewBox="0 0 2650 458" version="1.1" xmlns="http://www.w3.org/2000/svg" xmlns:xlink="http://www.w3.org/1999/xlink" xml:space="preserve" xmlns:serif="http://www.serif.com/" style="fill-rule:evenodd;clip-rule:evenodd;stroke-miterlimit:10;">
    <g>
        <path d="M416.4,149L469.7,101.4" style="fill:none;fill-rule:nonzero;stroke:rgb(30,129,185);stroke-width:6px;"/>
        <path d="M512.6,178.4L469.7,101.4" style="fill:none;fill-rule:nonzero;stroke:rgb(30,129,185);stroke-width:6px;"/>
        <path d="M542.1,90.9L469.7,101.4" style="fill:none;fill-rule:nonzero;stroke:rgb(30,129,185);stroke-width:6px;"/>
        <path d="M555.2,33.2L613.1,111.4" style="fill:none;fill-rule:nonzero;stroke:rgb(30,129,185);stroke-width:6px;"/>
        <path d="M555.2,33.2L492.7,49.2" style="fill:none;fill-rule:nonzero;stroke:rgb(30,129,185);stroke-width:6px;"/>
        <path d="M625.7,14.3L696.3,44.1" style="fill:none;fill-rule:nonzero;stroke:rgb(30,129,185);stroke-width:6px;"/>
        <path d="M613.1,111.4L696.3,44.1" style="fill:none;fill-rule:nonzero;stroke:rgb(30,129,185);stroke-width:6px;"/>
        <path d="M768.9,100.1L678,140.7" style="fill:none;fill-rule:nonzero;stroke:rgb(30,129,185);stroke-width:6px;"/>
        <path d="M792.3,191L768.9,100.1" style="fill:none;fill-rule:nonzero;stroke:rgb(30,129,185);stroke-width:6px;"/>
        <path d="M817.1,273.7L792.3,191" style="fill:none;fill-rule:nonzero;stroke:rgb(30,129,185);stroke-width:6px;"/>
        <path d="M713.1,273.7L792.3,191" style="fill:none;fill-rule:nonzero;stroke:rgb(30,129,185);stroke-width:6px;"/>
        <path d="M793.5,344.7L713.1,273.7" style="fill:none;fill-rule:nonzero;stroke:rgb(30,129,185);stroke-width:6px;"/>
        <path d="M716.5,381.8L616.9,346.7" style="fill:none;fill-rule:nonzero;stroke:rgb(30,129,185);stroke-width:6px;"/>
        <path d="M713.1,273.7L616.9,346.7" style="fill:none;fill-rule:nonzero;stroke:rgb(30,129,185);stroke-width:6px;"/>
        <path d="M638.9,442.8L716.5,381.8" style="fill:none;fill-rule:nonzero;stroke:rgb(30,129,185);stroke-width:6px;"/>
        <path d="M558.3,432.9L616.9,346.7" style="fill:none;fill-rule:nonzero;stroke:rgb(30,129,185);stroke-width:6px;"/>
        <path d="M490,393L558.3,432.9" style="fill:none;fill-rule:nonzero;stroke:rgb(30,129,185);stroke-width:6px;"/>
        <path d="M439.4,358.9L447.8,283.9" style="fill:none;fill-rule:nonzero;stroke:rgb(30,129,185);stroke-width:6px;"/>
        <path d="M539.2,307.1L447.8,283.9" style="fill:none;fill-rule:nonzero;stroke:rgb(30,129,185);stroke-width:6px;"/>
        <path d="M512.6,178.4L447.8,283.9" style="fill:none;fill-rule:nonzero;stroke:rgb(30,129,185);stroke-width:6px;"/>
        <path d="M445.4,202.7L447.8,283.9" style="fill:none;fill-rule:nonzero;stroke:rgb(30,129,185);stroke-width:6px;"/>
        <path d="M395.8,228.8L445.4,202.7" style="fill:none;fill-rule:nonzero;stroke:rgb(30,129,185);stroke-width:6px;"/>
    </g>
    <g>
        <g transform="matrix(0.3887,-0.9214,0.9214,0.3887,86.1991,893.544)">
            <circle cx="716.5" cy="381.8" r="44.8" style="fill:rgb(30,129,185);"/>
        </g>
        <g transform="matrix(0.3887,-0.9214,0.9214,0.3887,377.84,769.662)">
            <circle cx="768.9" cy="100.1" r="25.9" style="fill:rgb(30,129,185);"/>
        </g>
        <g transform="matrix(0.3887,-0.9214,0.9214,0.3887,385.044,668.498)">
            <ellipse cx="696.3" cy="44.1" rx="26.1" ry="25.9" style="fill:rgb(30,129,185);"/>
        </g>
        <g transform="matrix(0.3887,-0.9214,0.9214,0.3887,272.134,633.052)">
            <circle cx="613.1" cy="111.4" r="25.9" style="fill:rgb(30,129,185);"/>
        </g>
        <g transform="matrix(0.3887,-0.9214,0.9214,0.3887,308.855,531.772)">
            <circle cx="555.2" cy="33.1" r="25.9" style="fill:rgb(30,129,185);"/>
        </g>
        <g transform="matrix(0.3887,-0.9214,0.9214,0.3887,-62.5499,691.785)">
            <circle cx="490.1" cy="393" r="25.9" style="fill:rgb(30,129,185);"/>
        </g>
        <g transform="matrix(0.3887,-0.9214,0.9214,0.3887,193.741,494.742)">
            <circle cx="469.7" cy="101.4" r="25.9" style="fill:rgb(30,129,185);"/>
        </g>
        <g transform="matrix(0.3887,-0.9214,0.9214,0.3887,57.7076,780.327)">
            <circle cx="616.9" cy="346.7" r="25.9" style="fill:rgb(30,129,185);"/>
        </g>
        <g transform="matrix(0.3887,-0.9214,0.9214,0.3887,184.453,823.836)">
            <circle cx="713.1" cy="272.9" r="19.1" style="fill:rgb(30,129,185);"/>
        </g>
        <g transform="matrix(0.3887,-0.9214,0.9214,0.3887,247.386,920.2)">
            <circle cx="817.2" cy="273.7" r="19.1" style="fill:rgb(30,129,185);"/>
        </g>
        <g transform="matrix(0.3887,-0.9214,0.9214,0.3887,284.823,710.724)">
            <circle cx="678" cy="140.7" r="19.1" style="fill:rgb(30,129,185);"/>
        </g>
        <g transform="matrix(0.3887,-0.9214,0.9214,0.3887,149.005,581.389)">
            <circle cx="512.6" cy="178.4" r="19.1" style="fill:rgb(30,129,185);"/>
        </g>
        <g transform="matrix(0.3887,-0.9214,0.9214,0.3887,247.64,555.057)">
            <circle cx="542.1" cy="90.9" r="19.1" style="fill:rgb(30,129,185);"/>
        </g>
        <g transform="matrix(0.3887,-0.9214,0.9214,0.3887,117.232,474.821)">
            <circle cx="416.4" cy="149.1" r="19.1" style="fill:rgb(30,129,185);"/>
        </g>
        <g transform="matrix(0.3887,-0.9214,0.9214,0.3887,85.4544,534.269)">
            <circle cx="445.4" cy="202.7" r="19.1" style="fill:rgb(30,129,185);"/>
        </g>
        <g transform="matrix(0.3887,-0.9214,0.9214,0.3887,-57.5365,779.071)">
            <circle cx="558.3" cy="432.9" r="19.1" style="fill:rgb(30,129,185);"/>
        </g>
        <g transform="matrix(0.3887,-0.9214,0.9214,0.3887,-17.3804,859.414)">
            <circle cx="639" cy="442.8" r="14.3" style="fill:rgb(30,129,185);"/>
        </g>
        <g transform="matrix(0.3887,-0.9214,0.9214,0.3887,369.316,585.286)">
            <circle cx="625.7" cy="14.3" r="14.3" style="fill:rgb(30,129,185);"/>
        </g>
        <g transform="matrix(0.3887,-0.9214,0.9214,0.3887,-62.0754,624.226)">
            <circle cx="439.4" cy="358.9" r="14.3" style="fill:rgb(30,129,185);"/>
        </g>
        <g transform="matrix(0.3887,-0.9214,0.9214,0.3887,255.862,484.043)">
            <circle cx="492.7" cy="49.2" r="14.3" style="fill:rgb(30,129,185);"/>
        </g>
        <g transform="matrix(0.3887,-0.9214,0.9214,0.3887,31.1521,504.51)">
            <circle cx="395.8" cy="228.8" r="14.3" style="fill:rgb(30,129,185);"/>
        </g>
        <g transform="matrix(0.3887,-0.9214,0.9214,0.3887,12.1646,586.181)">
            <circle cx="447.8" cy="283.9" r="44.8" style="fill:rgb(30,129,185);"/>
        </g>
        <g transform="matrix(0.3887,-0.9214,0.9214,0.3887,308.334,846.75)">
            <circle cx="792.3" cy="191" r="44.8" style="fill:rgb(30,129,185);"/>
        </g>
        <g transform="matrix(0.3887,-0.9214,0.9214,0.3887,167.519,941.915)">
            <circle cx="793.6" cy="344.7" r="14.3" style="fill:rgb(30,129,185);"/>
        </g>
        <g transform="matrix(0.3887,-0.9214,0.9214,0.3887,46.706,684.555)">
            <circle cx="539.2" cy="307.1" r="14.3" style="fill:rgb(30,129,185);"/>
        </g>
    </g>
    <g>
        <path d="M0,457.2L0,0L170.1,0C200,0 222.9,1.5 238.7,4.4C260.9,8.1 279.4,15.3 294.4,25.8C309.4,36.3 321.4,51 330.5,69.9C339.6,88.8 344.2,109.6 344.2,132.3C344.2,171.2 332,204.1 307.6,231C283.2,257.9 239.1,271.4 175.3,271.4L59.7,271.4L59.7,457.2L0,457.2ZM59.7,217.3L176.3,217.3C214.9,217.3 242.2,210 258.4,195.5C274.6,181 282.7,160.5 282.7,134.1C282.7,115 277.9,98.6 268.4,85C258.9,71.4 246.3,62.4 230.7,58C220.6,55.3 202.1,53.9 175,53.9L59.7,53.9L59.7,217.3Z" style="fill:rgb(11,72,107);fill-rule:nonzero;"/>
        <path d="M911.2,457.1L911.2,0L1111.2,0C1151.4,0 1182,4.1 1202.9,12.3C1223.8,20.5 1240.5,35 1253,55.8C1265.5,76.6 1271.8,99.6 1271.8,124.7C1271.8,157.1 1261.4,184.5 1240.7,206.7C1220,228.9 1188,243.1 1144.7,249.1C1160.5,256.8 1172.5,264.4 1180.7,271.9C1198.1,288.1 1214.6,308.4 1230.2,332.7L1308.6,457.1L1233.5,457.1L1174,362C1156.6,334.6 1142.2,313.6 1130.9,299C1119.6,284.5 1109.5,274.3 1100.6,268.4C1091.7,262.6 1082.6,258.5 1073.4,256.2C1066.6,254.7 1055.6,254 1040.2,254L971,254L971,457L911.2,457L911.2,457.1ZM970.9,201.8L1099.2,201.8C1126.5,201.8 1147.8,198.9 1163.2,193.2C1178.6,187.5 1190.3,178.3 1198.3,165.8C1206.3,153.2 1210.3,139.6 1210.3,124.8C1210.3,103.2 1202.6,85.4 1187.1,71.5C1171.6,57.6 1147.2,50.6 1113.7,50.6L970.9,50.6L970.9,201.8Z" style="fill:rgb(11,72,107);fill-rule:nonzero;"/>
        <path d="M1366.6,457.1L1366.6,0L1692.7,0L1692.7,53.9L1426.3,53.9L1426.3,193.9L1675.8,193.9L1675.8,247.5L1426.3,247.5L1426.3,403.1L1703.2,403.1L1703.2,457L1366.6,457L1366.6,457.1Z" style="fill:rgb(11,72,107);fill-rule:nonzero;"/>
        <path d="M1783.7,457.2L1783.7,0L1873.5,0L1980.3,323.7C1990.1,353.8 1997.3,376.4 2001.8,391.4C2006.9,374.8 2014.9,350.3 2025.8,318.1L2133.8,0L2214.1,0L2214.1,457.1L2156.6,457.1L2156.6,74.5L2025.5,457.1L1971.7,457.1L1841.3,68L1841.3,457.2L1783.7,457.2Z" style="fill:rgb(30,129,185);fill-rule:nonzero;"/>
        <path d="M2290.1,307.6L2346.4,302.8C2349.1,324.9 2355.3,343.1 2365,357.2C2374.7,371.4 2389.9,382.8 2410.4,391.6C2430.9,400.3 2454,404.7 2479.6,404.7C2502.4,404.7 2522.5,401.4 2539.9,394.7C2557.3,388.1 2570.3,379 2578.8,367.4C2587.3,355.8 2591.6,343.2 2591.6,329.6C2591.6,315.7 2587.5,303.6 2579.3,293.3C2571.1,282.9 2557.6,274.3 2538.7,267.2C2526.6,262.6 2499.8,255.4 2458.4,245.6C2417,235.9 2387.9,226.7 2371.3,218C2349.8,206.9 2333.7,193.2 2323.2,176.8C2312.6,160.4 2307.4,142.1 2307.4,121.8C2307.4,99.5 2313.9,78.6 2326.8,59.2C2339.7,39.8 2358.6,25.1 2383.4,15C2408.1,5 2435.7,-0 2466.1,-0C2499.5,-0 2529,5.3 2554.5,15.8C2580,26.4 2599.7,41.9 2613.4,62.4C2627.1,82.9 2634.5,106.1 2635.6,132.1L2578.4,136.3C2575.3,108.4 2564.9,87.3 2547.2,73C2529.5,58.7 2503.3,51.6 2468.6,51.6C2432.5,51.6 2406.2,58.1 2389.7,71C2373.2,84 2364.9,99.6 2364.9,117.9C2364.9,133.8 2370.7,146.8 2382.4,157.1C2393.9,167.4 2423.9,177.9 2472.4,188.6C2520.9,199.4 2554.2,208.8 2572.2,216.8C2598.5,228.7 2617.8,243.7 2630.3,261.9C2642.8,280.1 2649.1,301.1 2649.1,324.8C2649.1,348.3 2642.2,370.5 2628.5,391.3C2614.8,412.1 2595,428.3 2569.3,439.8C2543.6,451.4 2514.6,457.1 2482.4,457.1C2441.6,457.1 2407.4,451.3 2379.8,439.6C2352.2,427.9 2330.6,410.4 2314.9,387C2299.2,363.6 2290.9,337.1 2290.1,307.6Z" style="fill:rgb(30,129,185);fill-rule:nonzero;"/>
    </g>
</svg>
