<?xml version="1.0" encoding="UTF-8" standalone="no"?>
<!DOCTYPE svg PUBLIC "-//W3C//DTD SVG 1.1//EN" "http://www.w3.org/Graphics/SVG/1.1/DTD/svg11.dtd">
<svg width="100%" height="100%" viewBox="0 0 3486 637" version="1.1" xmlns="http://www.w3.org/2000/svg" xmlns:xlink="http://www.w3.org/1999/xlink" xml:space="preserve" xmlns:serif="http://www.serif.com/" style="fill-rule:evenodd;clip-rule:evenodd;stroke-miterlimit:10;">
    <g>
        <path d="M416.4,149L469.7,101.4" style="fill:none;fill-rule:nonzero;stroke:rgb(30,129,185);stroke-width:6px;"/>
        <path d="M512.6,178.4L469.7,101.4" style="fill:none;fill-rule:nonzero;stroke:rgb(30,129,185);stroke-width:6px;"/>
        <path d="M542.1,90.9L469.7,101.4" style="fill:none;fill-rule:nonzero;stroke:rgb(30,129,185);stroke-width:6px;"/>
        <path d="M555.2,33.2L613.1,111.4" style="fill:none;fill-rule:nonzero;stroke:rgb(30,129,185);stroke-width:6px;"/>
        <path d="M555.2,33.2L492.7,49.2" style="fill:none;fill-rule:nonzero;stroke:rgb(30,129,185);stroke-width:6px;"/>
        <path d="M625.7,14.3L696.3,44.1" style="fill:none;fill-rule:nonzero;stroke:rgb(30,129,185);stroke-width:6px;"/>
        <path d="M613.1,111.4L696.3,44.1" style="fill:none;fill-rule:nonzero;stroke:rgb(30,129,185);stroke-width:6px;"/>
        <path d="M768.9,100.1L678,140.7" style="fill:none;fill-rule:nonzero;stroke:rgb(30,129,185);stroke-width:6px;"/>
        <path d="M792.3,191L768.9,100.1" style="fill:none;fill-rule:nonzero;stroke:rgb(30,129,185);stroke-width:6px;"/>
        <path d="M817.1,273.7L792.3,191" style="fill:none;fill-rule:nonzero;stroke:rgb(30,129,185);stroke-width:6px;"/>
        <path d="M713.1,273.7L792.3,191" style="fill:none;fill-rule:nonzero;stroke:rgb(30,129,185);stroke-width:6px;"/>
        <path d="M793.5,344.7L713.1,273.7" style="fill:none;fill-rule:nonzero;stroke:rgb(30,129,185);stroke-width:6px;"/>
        <path d="M716.5,381.8L616.9,346.7" style="fill:none;fill-rule:nonzero;stroke:rgb(30,129,185);stroke-width:6px;"/>
        <path d="M713.1,273.7L616.9,346.7" style="fill:none;fill-rule:nonzero;stroke:rgb(30,129,185);stroke-width:6px;"/>
        <path d="M638.9,442.8L716.5,381.8" style="fill:none;fill-rule:nonzero;stroke:rgb(30,129,185);stroke-width:6px;"/>
        <path d="M558.3,432.9L616.9,346.7" style="fill:none;fill-rule:nonzero;stroke:rgb(30,129,185);stroke-width:6px;"/>
        <path d="M490,393L558.3,432.9" style="fill:none;fill-rule:nonzero;stroke:rgb(30,129,185);stroke-width:6px;"/>
        <path d="M439.4,358.9L447.8,283.9" style="fill:none;fill-rule:nonzero;stroke:rgb(30,129,185);stroke-width:6px;"/>
        <path d="M539.2,307.1L447.8,283.9" style="fill:none;fill-rule:nonzero;stroke:rgb(30,129,185);stroke-width:6px;"/>
        <path d="M512.6,178.4L447.8,283.9" style="fill:none;fill-rule:nonzero;stroke:rgb(30,129,185);stroke-width:6px;"/>
        <path d="M445.4,202.7L447.8,283.9" style="fill:none;fill-rule:nonzero;stroke:rgb(30,129,185);stroke-width:6px;"/>
        <path d="M395.8,228.8L445.4,202.7" style="fill:none;fill-rule:nonzero;stroke:rgb(30,129,185);stroke-width:6px;"/>
    </g>
    <g>
        <g transform="matrix(0.3887,-0.9214,0.9214,0.3887,86.2529,893.534)">
            <circle cx="716.5" cy="381.8" r="44.8" style="fill:rgb(30,129,185);"/>
        </g>
        <g transform="matrix(0.3887,-0.9214,0.9214,0.3887,377.83,769.678)">
            <circle cx="768.9" cy="100.1" r="25.9" style="fill:rgb(30,129,185);"/>
        </g>
        <g transform="matrix(0.3887,-0.9214,0.9214,0.3887,385.071,668.517)">
            <ellipse cx="696.3" cy="44.1" rx="26.1" ry="25.9" style="fill:rgb(30,129,185);"/>
        </g>
        <g transform="matrix(0.3887,-0.9214,0.9214,0.3887,272.11,633.008)">
            <circle cx="613.1" cy="111.4" r="25.9" style="fill:rgb(30,129,185);"/>
        </g>
        <g transform="matrix(0.3887,-0.9214,0.9214,0.3887,308.9,531.727)">
            <circle cx="555.2" cy="33.1" r="25.9" style="fill:rgb(30,129,185);"/>
        </g>
        <g transform="matrix(0.3887,-0.9214,0.9214,0.3887,-62.4858,691.754)">
            <circle cx="490.1" cy="393" r="25.9" style="fill:rgb(30,129,185);"/>
        </g>
        <g transform="matrix(0.3887,-0.9214,0.9214,0.3887,193.757,494.779)">
            <circle cx="469.7" cy="101.4" r="25.9" style="fill:rgb(30,129,185);"/>
        </g>
        <g transform="matrix(0.3887,-0.9214,0.9214,0.3887,57.7291,780.364)">
            <circle cx="616.9" cy="346.7" r="25.9" style="fill:rgb(30,129,185);"/>
        </g>
        <g transform="matrix(0.3887,-0.9214,0.9214,0.3887,184.512,823.819)">
            <circle cx="713.1" cy="272.9" r="19.1" style="fill:rgb(30,129,185);"/>
        </g>
        <g transform="matrix(0.3887,-0.9214,0.9214,0.3887,247.472,920.228)">
            <circle cx="817.2" cy="273.6" r="19.1" style="fill:rgb(30,129,185);"/>
        </g>
        <g transform="matrix(0.3887,-0.9214,0.9214,0.3887,284.831,710.706)">
            <circle cx="678" cy="140.7" r="19.1" style="fill:rgb(30,129,185);"/>
        </g>
        <g transform="matrix(0.3887,-0.9214,0.9214,0.3887,148.984,581.395)">
            <circle cx="512.6" cy="178.4" r="19.1" style="fill:rgb(30,129,185);"/>
        </g>
        <g transform="matrix(0.3887,-0.9214,0.9214,0.3887,247.647,555.051)">
            <circle cx="542.1" cy="90.9" r="19.1" style="fill:rgb(30,129,185);"/>
        </g>
        <g transform="matrix(0.3887,-0.9214,0.9214,0.3887,117.211,474.87)">
            <circle cx="416.5" cy="149.1" r="19.1" style="fill:rgb(30,129,185);"/>
        </g>
        <g transform="matrix(0.3887,-0.9214,0.9214,0.3887,85.5162,534.224)">
            <circle cx="445.3" cy="202.7" r="19.1" style="fill:rgb(30,129,185);"/>
        </g>
        <g transform="matrix(0.3887,-0.9214,0.9214,0.3887,-57.5547,779.096)">
            <circle cx="558.3" cy="432.9" r="19.1" style="fill:rgb(30,129,185);"/>
        </g>
        <g transform="matrix(0.3887,-0.9214,0.9214,0.3887,-17.3162,859.413)">
            <circle cx="639" cy="442.8" r="14.3" style="fill:rgb(30,129,185);"/>
        </g>
        <g transform="matrix(0.3887,-0.9214,0.9214,0.3887,369.301,585.259)">
            <circle cx="625.7" cy="14.3" r="14.3" style="fill:rgb(30,129,185);"/>
        </g>
        <g transform="matrix(0.3887,-0.9214,0.9214,0.3887,-62.0325,624.239)">
            <circle cx="439.4" cy="358.9" r="14.3" style="fill:rgb(30,129,185);"/>
        </g>
        <g transform="matrix(0.3887,-0.9214,0.9214,0.3887,255.873,484.038)">
            <circle cx="492.7" cy="49.2" r="14.3" style="fill:rgb(30,129,185);"/>
        </g>
        <g transform="matrix(0.3887,-0.9214,0.9214,0.3887,31.2001,504.533)">
            <circle cx="395.8" cy="228.8" r="14.3" style="fill:rgb(30,129,185);"/>
        </g>
        <g transform="matrix(0.3887,-0.9214,0.9214,0.3887,12.1472,586.169)">
            <circle cx="447.8" cy="283.9" r="44.8" style="fill:rgb(30,129,185);"/>
        </g>
        <g transform="matrix(0.3887,-0.9214,0.9214,0.3887,308.385,846.731)">
            <circle cx="792.3" cy="191" r="44.8" style="fill:rgb(30,129,185);"/>
        </g>
        <g transform="matrix(0.3887,-0.9214,0.9214,0.3887,167.561,941.903)">
            <circle cx="793.6" cy="344.7" r="14.3" style="fill:rgb(30,129,185);"/>
        </g>
        <g transform="matrix(0.3887,-0.9214,0.9214,0.3887,46.6955,684.591)">
            <circle cx="539.3" cy="307.1" r="14.3" style="fill:rgb(30,129,185);"/>
        </g>
    </g>
    <g>
        <path d="M0,457.2L0,0L170.1,0C200,0 222.9,1.5 238.7,4.4C260.9,8.1 279.4,15.3 294.4,25.8C309.4,36.3 321.4,51 330.5,69.9C339.6,88.8 344.2,109.6 344.2,132.3C344.2,171.2 332,204.1 307.6,231C283.2,257.9 239.1,271.4 175.3,271.4L59.7,271.4L59.7,457.2L0,457.2ZM59.7,217.3L176.3,217.3C214.9,217.3 242.2,210 258.4,195.5C274.6,181 282.7,160.5 282.7,134.1C282.7,115 277.9,98.6 268.4,85C258.9,71.4 246.3,62.4 230.7,58C220.6,55.3 202.1,53.9 175,53.9L59.7,53.9L59.7,217.3Z" style="fill:rgb(11,72,107);fill-rule:nonzero;"/>
        <path d="M911.2,457.1L911.2,0L1111.2,0C1151.4,0 1182,4.1 1202.9,12.3C1223.8,20.5 1240.5,35 1253,55.8C1265.5,76.6 1271.8,99.6 1271.8,124.7C1271.8,157.1 1261.4,184.5 1240.7,206.7C1220,228.9 1188,243.1 1144.7,249.1C1160.5,256.8 1172.5,264.4 1180.7,271.9C1198.1,288.1 1214.6,308.4 1230.2,332.7L1308.6,457.1L1233.5,457.1L1174,362C1156.6,334.6 1142.2,313.6 1130.9,299C1119.6,284.5 1109.5,274.3 1100.6,268.4C1091.7,262.6 1082.6,258.5 1073.4,256.2C1066.6,254.7 1055.6,254 1040.2,254L971,254L971,457L911.2,457L911.2,457.1ZM970.9,201.8L1099.2,201.8C1126.5,201.8 1147.8,198.9 1163.2,193.2C1178.6,187.5 1190.3,178.3 1198.3,165.8C1206.3,153.2 1210.3,139.6 1210.3,124.8C1210.3,103.2 1202.6,85.4 1187.1,71.5C1171.6,57.6 1147.2,50.6 1113.7,50.6L970.9,50.6L970.9,201.8Z" style="fill:rgb(11,72,107);fill-rule:nonzero;"/>
        <path d="M1366.6,457.1L1366.6,0L1692.7,0L1692.7,53.9L1426.3,53.9L1426.3,193.9L1675.8,193.9L1675.8,247.5L1426.3,247.5L1426.3,403.1L1703.2,403.1L1703.2,457L1366.6,457L1366.6,457.1Z" style="fill:rgb(11,72,107);fill-rule:nonzero;"/>
        <path d="M1783.7,457.2L1783.7,0L1873.5,0L1980.3,323.7C1990.1,353.8 1997.3,376.4 2001.8,391.4C2006.9,374.8 2014.9,350.3 2025.8,318.1L2133.8,0L2214.1,0L2214.1,457.1L2156.6,457.1L2156.6,74.5L2025.5,457.1L1971.7,457.1L1841.3,68L1841.3,457.2L1783.7,457.2Z" style="fill:rgb(30,129,185);fill-rule:nonzero;"/>
        <path d="M2290.1,307.6L2346.4,302.8C2349.1,324.9 2355.3,343.1 2365,357.2C2374.7,371.4 2389.9,382.8 2410.4,391.6C2430.9,400.3 2454,404.7 2479.6,404.7C2502.4,404.7 2522.5,401.4 2539.9,394.7C2557.3,388.1 2570.3,379 2578.8,367.4C2587.3,355.8 2591.6,343.2 2591.6,329.6C2591.6,315.7 2587.5,303.6 2579.3,293.3C2571.1,282.9 2557.6,274.3 2538.7,267.2C2526.6,262.6 2499.8,255.4 2458.4,245.6C2417,235.9 2387.9,226.7 2371.3,218C2349.8,206.9 2333.7,193.2 2323.2,176.8C2312.6,160.4 2307.4,142.1 2307.4,121.8C2307.4,99.5 2313.9,78.6 2326.8,59.2C2339.7,39.8 2358.6,25.1 2383.4,15C2408.1,5 2435.7,-0 2466.1,-0C2499.5,-0 2529,5.3 2554.5,15.8C2580,26.4 2599.7,41.9 2613.4,62.4C2627.1,82.9 2634.5,106.1 2635.6,132.1L2578.4,136.3C2575.3,108.4 2564.9,87.3 2547.2,73C2529.5,58.7 2503.3,51.6 2468.6,51.6C2432.5,51.6 2406.2,58.1 2389.7,71C2373.2,84 2364.9,99.6 2364.9,117.9C2364.9,133.8 2370.7,146.8 2382.4,157.1C2393.9,167.4 2423.9,177.9 2472.4,188.6C2520.9,199.4 2554.2,208.8 2572.2,216.8C2598.5,228.7 2617.8,243.7 2630.3,261.9C2642.8,280.1 2649.1,301.1 2649.1,324.8C2649.1,348.3 2642.2,370.5 2628.5,391.3C2614.8,412.1 2595,428.3 2569.3,439.8C2543.6,451.4 2514.6,457.1 2482.4,457.1C2441.6,457.1 2407.4,451.3 2379.8,439.6C2352.2,427.9 2330.6,410.4 2314.9,387C2299.2,363.6 2290.9,337.1 2290.1,307.6Z" style="fill:rgb(30,129,185);fill-rule:nonzero;"/>
    </g>
    <g>
        <path d="M489.3,636.4L465.7,636.4L456.3,612L413.4,612L404.5,636.4L381.5,636.4L423.3,529L446.2,529L489.3,636.4ZM449.3,593.9L434.5,554.1L420,593.9L449.3,593.9Z" style="fill:rgb(30,129,185);fill-rule:nonzero;"/>
        <path d="M536.9,636.4L536.9,529L571.7,529C584.9,529 593.5,529.5 597.5,530.6C603.7,532.2 608.8,535.7 613,541.1C617.1,546.5 619.2,553.5 619.2,562C619.2,568.6 618,574.1 615.6,578.6C613.2,583.1 610.2,586.6 606.5,589.2C602.8,591.8 599.1,593.5 595.3,594.3C590.1,595.3 582.6,595.8 572.8,595.8L558.7,595.8L558.7,636.3L536.9,636.3L536.9,636.4ZM558.5,547.2L558.5,577.7L570.4,577.7C578.9,577.7 584.7,577.1 587.5,576C590.4,574.9 592.6,573.1 594.3,570.7C595.9,568.3 596.8,565.5 596.8,562.4C596.8,558.5 595.7,555.3 593.4,552.7C591.1,550.2 588.2,548.6 584.7,547.9C582.1,547.4 576.9,547.2 569.1,547.2L558.5,547.2Z" style="fill:rgb(30,129,185);fill-rule:nonzero;"/>
        <path d="M632,596.4C632,589.6 633.7,582.9 637.1,576.6C640.5,570.2 645.2,565.3 651.4,562C657.6,558.6 664.5,556.9 672.1,556.9C683.9,556.9 693.5,560.7 701,568.4C708.5,576 712.3,585.7 712.3,597.4C712.3,609.2 708.5,618.9 700.9,626.7C693.3,634.4 683.7,638.3 672.2,638.3C665.1,638.3 658.3,636.7 651.8,633.5C645.3,630.3 640.4,625.6 637,619.3C633.7,612.9 632,605.3 632,596.4ZM653.1,597.5C653.1,605.2 654.9,611.1 658.6,615.2C662.3,619.3 666.8,621.4 672.1,621.4C677.5,621.4 682,619.3 685.6,615.2C689.2,611.1 691.1,605.1 691.1,597.3C691.1,589.7 689.3,583.8 685.6,579.7C682,575.6 677.5,573.5 672.1,573.5C666.7,573.5 662.2,575.6 658.6,579.7C655,583.8 653.1,589.8 653.1,597.5Z" style="fill:rgb(30,129,185);fill-rule:nonzero;"/>
        <path d="M748.1,636.4L727.5,636.4L727.5,558.6L746.6,558.6L746.6,569.7C749.9,564.5 752.8,561 755.4,559.4C758,557.7 761,556.9 764.3,556.9C769,556.9 773.5,558.2 777.8,560.8L771.4,578.7C767.9,576.5 764.7,575.3 761.7,575.3C758.8,575.3 756.4,576.1 754.4,577.7C752.4,579.3 750.8,582.2 749.7,586.3C748.6,590.5 748,599.1 748,612.4L748,636.4L748.1,636.4Z" style="fill:rgb(30,129,185);fill-rule:nonzero;"/>
        <path d="M831.8,611.6L852.3,615C849.7,622.5 845.5,628.2 839.8,632.2C834.1,636.1 827,638.1 818.4,638.1C804.9,638.1 794.9,633.7 788.4,624.8C783.3,617.7 780.7,608.8 780.7,598C780.7,585.1 784.1,575 790.8,567.7C797.5,560.4 806.1,556.8 816.4,556.8C828,556.8 837.1,560.6 843.8,568.3C850.5,575.9 853.7,587.6 853.4,603.4L801.8,603.4C801.9,609.5 803.6,614.3 806.8,617.6C810,621 813.9,622.7 818.7,622.7C821.9,622.7 824.6,621.8 826.8,620.1C829,618.4 830.7,615.6 831.8,611.6ZM833,590.8C832.9,584.8 831.3,580.3 828.4,577.2C825.5,574.1 821.9,572.5 817.7,572.5C813.2,572.5 809.5,574.1 806.6,577.4C803.7,580.7 802.2,585.1 802.3,590.7L833,590.7L833,590.8Z" style="fill:rgb(30,129,185);fill-rule:nonzero;"/>
        <path d="M962,596.9L962,578.8L1008.7,578.8L1008.7,621.6C1004.2,626 997.6,629.9 989,633.2C980.4,636.5 971.7,638.2 962.8,638.2C951.6,638.2 941.8,635.8 933.4,631.1C925,626.4 918.8,619.6 914.6,610.9C910.4,602.1 908.3,592.6 908.3,582.3C908.3,571.1 910.6,561.2 915.3,552.5C920,543.8 926.8,537.1 935.9,532.5C942.8,528.9 951.4,527.2 961.6,527.2C974.9,527.2 985.3,530 992.8,535.6C1000.3,541.2 1005.1,548.9 1007.3,558.8L985.8,562.8C984.3,557.5 981.4,553.4 977.3,550.3C973.1,547.2 967.9,545.7 961.7,545.7C952.2,545.7 944.7,548.7 939.1,554.7C933.5,560.7 930.7,569.6 930.7,581.4C930.7,594.1 933.5,603.7 939.2,610.1C944.9,616.5 952.3,619.7 961.5,619.7C966,619.7 970.6,618.8 975.2,617C979.8,615.2 983.7,613.1 987,610.5L987,596.9L962,596.9Z" style="fill:rgb(30,129,185);fill-rule:nonzero;"/>
        <path d="M1073.6,611.6L1094.1,615C1091.5,622.5 1087.3,628.2 1081.6,632.2C1075.9,636.1 1068.8,638.1 1060.3,638.1C1046.8,638.1 1036.8,633.7 1030.3,624.8C1025.2,617.7 1022.6,608.8 1022.6,598C1022.6,585.1 1026,575 1032.7,567.7C1039.4,560.4 1048,556.8 1058.3,556.8C1069.9,556.8 1079,560.6 1085.7,568.3C1092.4,575.9 1095.6,587.6 1095.3,603.4L1043.7,603.4C1043.8,609.5 1045.5,614.3 1048.7,617.6C1051.9,621 1055.8,622.7 1060.6,622.7C1063.8,622.7 1066.5,621.8 1068.7,620.1C1070.9,618.4 1072.5,615.6 1073.6,611.6ZM1074.7,590.8C1074.6,584.8 1073,580.3 1070.1,577.2C1067.2,574.1 1063.6,572.5 1059.4,572.5C1054.9,572.5 1051.2,574.1 1048.3,577.4C1045.4,580.7 1043.9,585.1 1044,590.7L1074.7,590.7L1074.7,590.8Z" style="fill:rgb(30,129,185);fill-rule:nonzero;"/>
        <path d="M1182.7,636.4L1162.1,636.4L1162.1,596.7C1162.1,588.3 1161.7,582.9 1160.8,580.4C1159.9,577.9 1158.5,576 1156.5,574.7C1154.5,573.3 1152.1,572.6 1149.4,572.6C1145.8,572.6 1142.6,573.6 1139.8,575.5C1137,577.5 1135,580 1134,583.3C1133,586.6 1132.4,592.5 1132.4,601.2L1132.4,636.4L1111.8,636.4L1111.8,558.6L1130.9,558.6L1130.9,570C1137.7,561.2 1146.2,556.8 1156.5,556.8C1161,556.8 1165.2,557.6 1169,559.3C1172.8,560.9 1175.6,563 1177.5,565.6C1179.4,568.1 1180.8,571 1181.5,574.2C1182.2,577.4 1182.6,582 1182.6,588L1182.6,636.4L1182.7,636.4Z" style="fill:rgb(30,129,185);fill-rule:nonzero;"/>
        <path d="M1248.6,611.6L1269.1,615C1266.5,622.5 1262.3,628.2 1256.6,632.2C1250.9,636.1 1243.8,638.1 1235.3,638.1C1221.8,638.1 1211.8,633.7 1205.3,624.8C1200.2,617.7 1197.6,608.8 1197.6,598C1197.6,585.1 1201,575 1207.7,567.7C1214.4,560.4 1223,556.8 1233.3,556.8C1244.9,556.8 1254,560.6 1260.7,568.3C1267.4,575.9 1270.6,587.6 1270.3,603.4L1218.7,603.4C1218.8,609.5 1220.5,614.3 1223.7,617.6C1226.9,621 1230.8,622.7 1235.6,622.7C1238.8,622.7 1241.5,621.8 1243.7,620.1C1245.9,618.4 1247.5,615.6 1248.6,611.6ZM1249.8,590.8C1249.7,584.8 1248.1,580.3 1245.2,577.2C1242.3,574.1 1238.7,572.5 1234.5,572.5C1230,572.5 1226.3,574.1 1223.4,577.4C1220.5,580.7 1219,585.1 1219.1,590.7L1249.8,590.7L1249.8,590.8Z" style="fill:rgb(30,129,185);fill-rule:nonzero;"/>
        <path d="M1306.7,636.4L1286.1,636.4L1286.1,558.6L1305.2,558.6L1305.2,569.7C1308.5,564.5 1311.4,561 1314,559.4C1316.6,557.7 1319.6,556.9 1322.9,556.9C1327.6,556.9 1332.1,558.2 1336.4,560.8L1330,578.7C1326.5,576.5 1323.3,575.3 1320.3,575.3C1317.4,575.3 1315,576.1 1313,577.7C1311,579.3 1309.4,582.2 1308.3,586.3C1307.2,590.5 1306.6,599.1 1306.6,612.4L1306.6,636.4L1306.7,636.4Z" style="fill:rgb(30,129,185);fill-rule:nonzero;"/>
        <path d="M1360.8,582.4L1342.1,579C1344.2,571.5 1347.8,565.9 1352.9,562.3C1358,558.7 1365.6,556.9 1375.8,556.9C1385,556.9 1391.8,558 1396.3,560.2C1400.8,562.4 1404,565.1 1405.8,568.5C1407.6,571.8 1408.5,578 1408.5,586.9L1408.3,610.9C1408.3,617.7 1408.6,622.8 1409.3,626C1410,629.2 1411.2,632.7 1413,636.4L1392.6,636.4C1392.1,635 1391.4,633 1390.6,630.3C1390.3,629.1 1390,628.3 1389.9,627.9C1386.4,631.3 1382.6,633.9 1378.6,635.6C1374.6,637.3 1370.3,638.2 1365.8,638.2C1357.8,638.2 1351.5,636 1346.9,631.7C1342.3,627.4 1340,621.9 1340,615.2C1340,610.8 1341,606.9 1343.1,603.4C1345.2,600 1348.1,597.3 1351.9,595.5C1355.7,593.7 1361.1,592.1 1368.3,590.7C1377.9,588.9 1384.6,587.2 1388.3,585.6L1388.3,583.5C1388.3,579.5 1387.3,576.7 1385.4,575C1383.4,573.3 1379.8,572.5 1374.3,572.5C1370.6,572.5 1367.8,573.2 1365.7,574.7C1363.6,576.2 1362,578.7 1360.8,582.4ZM1388.3,599.1C1385.7,600 1381.5,601 1375.8,602.2C1370.1,603.4 1366.4,604.6 1364.6,605.8C1361.9,607.7 1360.6,610.1 1360.6,613.1C1360.6,616 1361.7,618.5 1363.8,620.6C1365.9,622.7 1368.7,623.7 1372,623.7C1375.7,623.7 1379.3,622.5 1382.6,620C1385.1,618.1 1386.7,615.9 1387.5,613.2C1388,611.4 1388.3,608.1 1388.3,603.2L1388.3,599.1Z" style="fill:rgb(30,129,185);fill-rule:nonzero;"/>
        <path d="M1464.5,558.6L1464.5,575L1450.4,575L1450.4,606.3C1450.4,612.6 1450.5,616.3 1450.8,617.4C1451.1,618.5 1451.7,619.3 1452.6,620C1453.6,620.7 1454.7,621 1456.1,621C1458,621 1460.8,620.3 1464.4,619L1466.2,635C1461.4,637.1 1456,638.1 1449.9,638.1C1446.2,638.1 1442.8,637.5 1439.9,636.2C1436.9,635 1434.7,633.3 1433.3,631.4C1431.9,629.4 1430.9,626.7 1430.4,623.4C1430,621 1429.7,616.2 1429.7,608.9L1429.7,575L1420.3,575L1420.3,558.6L1429.7,558.6L1429.7,543.1L1450.4,531.1L1450.4,558.6L1464.5,558.6Z" style="fill:rgb(30,129,185);fill-rule:nonzero;"/>
        <path d="M1474,596.4C1474,589.6 1475.7,582.9 1479.1,576.6C1482.5,570.2 1487.2,565.3 1493.4,562C1499.6,558.6 1506.5,556.9 1514.1,556.9C1525.9,556.9 1535.5,560.7 1543,568.4C1550.5,576 1554.3,585.7 1554.3,597.4C1554.3,609.2 1550.5,618.9 1542.9,626.7C1535.3,634.4 1525.7,638.3 1514.2,638.3C1507.1,638.3 1500.3,636.7 1493.8,633.5C1487.3,630.3 1482.4,625.6 1479,619.3C1475.7,612.9 1474,605.3 1474,596.4ZM1495.1,597.5C1495.1,605.2 1496.9,611.1 1500.6,615.2C1504.3,619.3 1508.8,621.4 1514.1,621.4C1519.5,621.4 1524,619.3 1527.6,615.2C1531.2,611.1 1533.1,605.1 1533.1,597.3C1533.1,589.7 1531.3,583.8 1527.6,579.7C1524,575.6 1519.5,573.5 1514.1,573.5C1508.7,573.5 1504.2,575.6 1500.6,579.7C1497,583.8 1495.1,589.8 1495.1,597.5Z" style="fill:rgb(30,129,185);fill-rule:nonzero;"/>
        <path d="M1590.1,636.4L1569.5,636.4L1569.5,558.6L1588.6,558.6L1588.6,569.7C1591.9,564.5 1594.8,561 1597.4,559.4C1600,557.7 1603,556.9 1606.3,556.9C1611,556.9 1615.5,558.2 1619.8,560.8L1613.4,578.7C1609.9,576.5 1606.7,575.3 1603.7,575.3C1600.8,575.3 1598.4,576.1 1596.4,577.7C1594.4,579.3 1592.8,582.2 1591.7,586.3C1590.6,590.5 1590,599.1 1590,612.4L1590,636.4L1590.1,636.4Z" style="fill:rgb(30,129,185);fill-rule:nonzero;"/>
        <path d="M1661.4,558.6L1672.8,558.6L1672.8,552.7C1672.8,546.2 1673.5,541.3 1674.9,538.1C1676.3,534.9 1678.9,532.3 1682.6,530.2C1686.3,528.2 1691.1,527.2 1696.8,527.2C1702.7,527.2 1708.4,528.1 1714,529.8L1711.2,544.2C1707.9,543.4 1704.8,543 1701.8,543C1698.8,543 1696.7,543.7 1695.4,545.1C1694.1,546.5 1693.5,549.2 1693.5,553.1L1693.5,558.6L1708.9,558.6L1708.9,574.8L1693.5,574.8L1693.5,636.4L1672.9,636.4L1672.9,574.8L1661.5,574.8L1661.5,558.6L1661.4,558.6Z" style="fill:rgb(30,129,185);fill-rule:nonzero;"/>
        <path d="M1715.6,596.4C1715.6,589.6 1717.3,582.9 1720.7,576.6C1724.1,570.2 1728.8,565.3 1735,562C1741.2,558.6 1748.1,556.9 1755.7,556.9C1767.5,556.9 1777.1,560.7 1784.6,568.4C1792.1,576 1795.9,585.7 1795.9,597.4C1795.9,609.2 1792.1,618.9 1784.5,626.7C1776.9,634.4 1767.3,638.3 1755.8,638.3C1748.7,638.3 1741.9,636.7 1735.4,633.5C1728.9,630.3 1724,625.6 1720.6,619.3C1717.3,612.9 1715.6,605.3 1715.6,596.4ZM1736.7,597.5C1736.7,605.2 1738.5,611.1 1742.2,615.2C1745.9,619.3 1750.4,621.4 1755.7,621.4C1761.1,621.4 1765.6,619.3 1769.2,615.2C1772.8,611.1 1774.7,605.1 1774.7,597.3C1774.7,589.7 1772.9,583.8 1769.2,579.7C1765.6,575.6 1761.1,573.5 1755.7,573.5C1750.3,573.5 1745.8,575.6 1742.2,579.7C1738.6,583.8 1736.7,589.8 1736.7,597.5Z" style="fill:rgb(30,129,185);fill-rule:nonzero;"/>
        <path d="M1831.7,636.4L1811.1,636.4L1811.1,558.6L1830.2,558.6L1830.2,569.7C1833.5,564.5 1836.4,561 1839,559.4C1841.6,557.7 1844.6,556.9 1847.9,556.9C1852.6,556.9 1857.1,558.2 1861.4,560.8L1855,578.7C1851.5,576.5 1848.3,575.3 1845.3,575.3C1842.4,575.3 1840,576.1 1838,577.7C1836,579.3 1834.4,582.2 1833.3,586.3C1832.2,590.5 1831.6,599.1 1831.6,612.4L1831.6,636.4L1831.7,636.4Z" style="fill:rgb(30,129,185);fill-rule:nonzero;"/>
        <path d="M1911.9,636.4L1911.9,529L1944.3,529L1963.8,602.2L1983.1,529L2015.6,529L2015.6,636.4L1995.5,636.4L1995.5,551.9L1974.2,636.4L1953.3,636.4L1932.1,551.9L1932.1,636.4L1911.9,636.4Z" style="fill:rgb(11,72,107);fill-rule:nonzero;"/>
        <path d="M2032.2,596.4C2032.2,589.6 2033.9,582.9 2037.3,576.6C2040.7,570.2 2045.4,565.3 2051.6,562C2057.8,558.6 2064.7,556.9 2072.3,556.9C2084.1,556.9 2093.7,560.7 2101.2,568.4C2108.7,576 2112.5,585.7 2112.5,597.4C2112.5,609.2 2108.7,618.9 2101.1,626.7C2093.5,634.4 2083.9,638.3 2072.4,638.3C2065.3,638.3 2058.5,636.7 2052,633.5C2045.5,630.3 2040.6,625.6 2037.2,619.3C2033.9,612.9 2032.2,605.3 2032.2,596.4ZM2053.3,597.5C2053.3,605.2 2055.1,611.1 2058.8,615.2C2062.5,619.3 2067,621.4 2072.3,621.4C2077.7,621.4 2082.2,619.3 2085.8,615.2C2089.4,611.1 2091.3,605.1 2091.3,597.3C2091.3,589.7 2089.5,583.8 2085.8,579.7C2082.2,575.6 2077.7,573.5 2072.3,573.5C2066.9,573.5 2062.4,575.6 2058.8,579.7C2055.2,583.8 2053.3,589.8 2053.3,597.5Z" style="fill:rgb(11,72,107);fill-rule:nonzero;"/>
        <rect x="2128.6" y="529" width="20.6" height="107.4" style="fill:rgb(11,72,107);fill-rule:nonzero;"/>
        <path d="M2215.3,611.6L2235.8,615C2233.2,622.5 2229,628.2 2223.3,632.2C2217.6,636.1 2210.5,638.1 2202,638.1C2188.5,638.1 2178.5,633.7 2172,624.8C2166.9,617.7 2164.3,608.8 2164.3,598C2164.3,585.1 2167.7,575 2174.4,567.7C2181.1,560.4 2189.7,556.8 2200,556.8C2211.6,556.8 2220.7,560.6 2227.4,568.3C2234.1,575.9 2237.3,587.6 2237,603.4L2185.4,603.4C2185.5,609.5 2187.2,614.3 2190.4,617.6C2193.6,621 2197.5,622.7 2202.3,622.7C2205.5,622.7 2208.2,621.8 2210.4,620.1C2212.6,618.4 2214.2,615.6 2215.3,611.6ZM2216.5,590.8C2216.4,584.8 2214.8,580.3 2211.9,577.2C2209,574.1 2205.4,572.5 2201.2,572.5C2196.7,572.5 2193,574.1 2190.1,577.4C2187.2,580.7 2185.7,585.1 2185.8,590.7L2216.5,590.7L2216.5,590.8Z" style="fill:rgb(11,72,107);fill-rule:nonzero;"/>
        <path d="M2321.6,581.6L2301.3,585.3C2300.6,581.2 2299.1,578.2 2296.6,576.1C2294.2,574 2291,573 2287.2,573C2282.1,573 2278,574.8 2274.9,578.3C2271.8,581.8 2270.3,587.8 2270.3,596.1C2270.3,605.3 2271.8,611.8 2275,615.7C2278.2,619.6 2282.3,621.4 2287.5,621.4C2291.4,621.4 2294.6,620.3 2297.1,618.1C2299.6,615.9 2301.3,612.1 2302.4,606.6L2322.6,610C2320.5,619.3 2316.5,626.3 2310.5,631C2304.5,635.7 2296.6,638.1 2286.5,638.1C2275.1,638.1 2266.1,634.5 2259.3,627.3C2252.5,620.1 2249.2,610.2 2249.2,597.5C2249.2,584.7 2252.6,574.7 2259.4,567.5C2266.2,560.3 2275.4,556.8 2286.9,556.8C2296.4,556.8 2303.9,558.8 2309.5,562.9C2315.1,567.1 2319.1,573.3 2321.6,581.6Z" style="fill:rgb(11,72,107);fill-rule:nonzero;"/>
        <path d="M2388.3,636.5L2388.3,624.8C2385.5,629 2381.7,632.2 2377.1,634.6C2372.5,637 2367.6,638.2 2362.5,638.2C2357.3,638.2 2352.6,637.1 2348.4,634.8C2344.2,632.5 2341.2,629.3 2339.4,625.1C2337.5,621 2336.6,615.2 2336.6,607.9L2336.6,558.7L2357.2,558.7L2357.2,594.4C2357.2,605.3 2357.6,612 2358.3,614.5C2359,617 2360.4,618.9 2362.4,620.4C2364.4,621.8 2366.9,622.6 2370,622.6C2373.5,622.6 2376.7,621.6 2379.4,619.7C2382.1,617.8 2384.1,615.4 2385.1,612.5C2386.1,609.6 2386.6,602.6 2386.6,591.5L2386.6,558.7L2407.2,558.7L2407.2,636.5L2388.3,636.5Z" style="fill:rgb(11,72,107);fill-rule:nonzero;"/>
        <rect x="2428.8" y="529" width="20.6" height="107.4" style="fill:rgb(11,72,107);fill-rule:nonzero;"/>
        <path d="M2485.8,582.4L2467.1,579C2469.2,571.5 2472.8,565.9 2477.9,562.3C2483,558.7 2490.6,556.9 2500.8,556.9C2510,556.9 2516.8,558 2521.3,560.2C2525.8,562.4 2529,565.1 2530.8,568.5C2532.6,571.8 2533.5,578 2533.5,586.9L2533.3,610.9C2533.3,617.7 2533.6,622.8 2534.3,626C2535,629.2 2536.2,632.7 2538,636.4L2517.6,636.4C2517.1,635 2516.4,633 2515.6,630.3C2515.3,629.1 2515,628.3 2514.9,627.9C2511.4,631.3 2507.6,633.9 2503.6,635.6C2499.6,637.3 2495.3,638.2 2490.8,638.2C2482.8,638.2 2476.5,636 2471.9,631.7C2467.3,627.4 2465,621.9 2465,615.2C2465,610.8 2466,606.9 2468.1,603.4C2470.2,600 2473.1,597.3 2476.9,595.5C2480.7,593.7 2486.1,592.1 2493.3,590.7C2502.9,588.9 2509.6,587.2 2513.3,585.6L2513.3,583.5C2513.3,579.5 2512.3,576.7 2510.4,575C2508.4,573.3 2504.8,572.5 2499.3,572.5C2495.6,572.5 2492.8,573.2 2490.7,574.7C2488.6,576.2 2487.1,578.7 2485.8,582.4ZM2513.4,599.1C2510.8,600 2506.6,601 2500.9,602.2C2495.2,603.4 2491.5,604.6 2489.7,605.8C2487,607.7 2485.7,610.1 2485.7,613.1C2485.7,616 2486.8,618.5 2488.9,620.6C2491,622.7 2493.8,623.7 2497.1,623.7C2500.8,623.7 2504.4,622.5 2507.7,620C2510.2,618.1 2511.8,615.9 2512.6,613.2C2513.1,611.4 2513.4,608.1 2513.4,603.2L2513.4,599.1Z" style="fill:rgb(11,72,107);fill-rule:nonzero;"/>
        <path d="M2573.6,636.4L2553,636.4L2553,558.6L2572.1,558.6L2572.1,569.7C2575.4,564.5 2578.3,561 2580.9,559.4C2583.5,557.7 2586.5,556.9 2589.8,556.9C2594.5,556.9 2599,558.2 2603.3,560.8L2596.9,578.7C2593.4,576.5 2590.2,575.3 2587.2,575.3C2584.3,575.3 2581.9,576.1 2579.9,577.7C2577.9,579.3 2576.3,582.2 2575.2,586.3C2574.1,590.5 2573.5,599.1 2573.5,612.4L2573.5,636.4L2573.6,636.4Z" style="fill:rgb(11,72,107);fill-rule:nonzero;"/>
        <path d="M2648.6,601.5L2669.7,599.4C2671,606.5 2673.5,611.7 2677.4,615C2681.3,618.3 2686.5,620 2693.1,620C2700.1,620 2705.3,618.5 2708.9,615.6C2712.4,612.6 2714.2,609.2 2714.2,605.2C2714.2,602.7 2713.5,600.5 2712,598.7C2710.5,596.9 2707.9,595.4 2704.2,594C2701.7,593.1 2695.9,591.6 2686.8,589.3C2675.2,586.4 2667,582.9 2662.3,578.7C2655.7,572.8 2652.4,565.6 2652.4,557.1C2652.4,551.6 2653.9,546.5 2657.1,541.8C2660.2,537 2664.7,533.4 2670.5,530.9C2676.3,528.4 2683.4,527.2 2691.6,527.2C2705.1,527.2 2715.2,530.2 2722,536.1C2728.8,542 2732.4,549.9 2732.7,559.8L2711,560.8C2710.1,555.3 2708.1,551.3 2705,548.9C2701.9,546.5 2697.4,545.3 2691.3,545.3C2685,545.3 2680.1,546.6 2676.5,549.2C2674.2,550.9 2673.1,553.1 2673.1,555.9C2673.1,558.4 2674.2,560.6 2676.3,562.4C2679,564.7 2685.7,567.1 2696.2,569.6C2706.7,572.1 2714.5,574.7 2719.6,577.3C2724.7,580 2728.6,583.6 2731.5,588.2C2734.4,592.8 2735.8,598.5 2735.8,605.3C2735.8,611.5 2734.1,617.2 2730.7,622.6C2727.3,628 2722.4,632 2716.2,634.6C2709.9,637.2 2702.2,638.5 2692.8,638.5C2679.2,638.5 2668.8,635.4 2661.5,629.1C2654.3,622.6 2650,613.5 2648.6,601.5Z" style="fill:rgb(11,72,107);fill-rule:nonzero;"/>
        <path d="M2754,548.1L2754,529.1L2774.6,529.1L2774.6,548.1L2754,548.1ZM2754,636.4L2754,558.6L2774.6,558.6L2774.6,636.4L2754,636.4Z" style="fill:rgb(11,72,107);fill-rule:nonzero;"/>
        <path d="M2794.1,558.6L2813.1,558.6L2813.1,569.2C2819.9,560.9 2828,556.8 2837.3,556.8C2842.3,556.8 2846.6,557.8 2850.3,559.9C2854,562 2857,565.1 2859.3,569.2C2862.7,565.1 2866.4,561.9 2870.4,559.9C2874.4,557.9 2878.6,556.8 2883.1,556.8C2888.8,556.8 2893.6,558 2897.6,560.3C2901.6,562.6 2904.5,566 2906.5,570.5C2907.9,573.8 2908.6,579.2 2908.6,586.6L2908.6,636.3L2888,636.3L2888,591.8C2888,584.1 2887.3,579.1 2885.9,576.9C2884,574 2881.1,572.5 2877.1,572.5C2874.2,572.5 2871.5,573.4 2869,575.1C2866.5,576.9 2864.6,579.4 2863.5,582.8C2862.4,586.2 2861.8,591.6 2861.8,598.9L2861.8,636.3L2841.2,636.3L2841.2,593.7C2841.2,586.1 2840.8,581.2 2840.1,579.1C2839.4,577 2838.2,575.3 2836.7,574.2C2835.2,573.1 2833.1,572.6 2830.4,572.6C2827.2,572.6 2824.4,573.5 2821.8,575.2C2819.3,576.9 2817.4,579.4 2816.3,582.6C2815.2,585.8 2814.7,591.2 2814.7,598.6L2814.7,636.4L2794.1,636.4L2794.1,558.6Z" style="fill:rgb(11,72,107);fill-rule:nonzero;"/>
        <path d="M2980.2,636.5L2980.2,624.8C2977.4,629 2973.6,632.2 2969,634.6C2964.4,637 2959.5,638.2 2954.4,638.2C2949.2,638.2 2944.5,637.1 2940.3,634.8C2936.1,632.5 2933.1,629.3 2931.3,625.1C2929.4,621 2928.5,615.2 2928.5,607.9L2928.5,558.7L2949.1,558.7L2949.1,594.4C2949.1,605.3 2949.5,612 2950.2,614.5C2950.9,617 2952.3,618.9 2954.3,620.4C2956.3,621.8 2958.8,622.6 2961.9,622.6C2965.4,622.6 2968.6,621.6 2971.3,619.7C2974,617.8 2976,615.4 2977,612.5C2978,609.6 2978.5,602.6 2978.5,591.5L2978.5,558.7L2999.1,558.7L2999.1,636.5L2980.2,636.5Z" style="fill:rgb(11,72,107);fill-rule:nonzero;"/>
        <rect x="3020.6" y="529" width="20.6" height="107.4" style="fill:rgb(11,72,107);fill-rule:nonzero;"/>
        <path d="M3077.7,582.4L3059,579C3061.1,571.5 3064.7,565.9 3069.8,562.3C3074.9,558.7 3082.5,556.9 3092.7,556.9C3101.9,556.9 3108.7,558 3113.2,560.2C3117.7,562.4 3120.9,565.1 3122.7,568.5C3124.5,571.8 3125.4,578 3125.4,586.9L3125.2,610.9C3125.2,617.7 3125.5,622.8 3126.2,626C3126.9,629.2 3128.1,632.7 3129.9,636.4L3109.5,636.4C3109,635 3108.3,633 3107.5,630.3C3107.2,629.1 3106.9,628.3 3106.8,627.9C3103.3,631.3 3099.5,633.9 3095.5,635.6C3091.5,637.3 3087.2,638.2 3082.7,638.2C3074.7,638.2 3068.4,636 3063.8,631.7C3059.2,627.4 3056.9,621.9 3056.9,615.2C3056.9,610.8 3057.9,606.9 3060,603.4C3062.1,600 3065,597.3 3068.8,595.5C3072.6,593.7 3078,592.1 3085.2,590.7C3094.8,588.9 3101.5,587.2 3105.2,585.6L3105.2,583.5C3105.2,579.5 3104.2,576.7 3102.3,575C3100.3,573.3 3096.7,572.5 3091.2,572.5C3087.5,572.5 3084.7,573.2 3082.6,574.7C3080.5,576.2 3079,578.7 3077.7,582.4ZM3105.2,599.1C3102.6,600 3098.4,601 3092.7,602.2C3087,603.4 3083.3,604.6 3081.5,605.8C3078.8,607.7 3077.5,610.1 3077.5,613.1C3077.5,616 3078.6,618.5 3080.7,620.6C3082.8,622.7 3085.6,623.7 3088.9,623.7C3092.6,623.7 3096.2,622.5 3099.5,620C3102,618.1 3103.6,615.9 3104.4,613.2C3104.9,611.4 3105.2,608.1 3105.2,603.2L3105.2,599.1Z" style="fill:rgb(11,72,107);fill-rule:nonzero;"/>
        <path d="M3181.4,558.6L3181.4,575L3167.3,575L3167.3,606.3C3167.3,612.6 3167.4,616.3 3167.7,617.4C3168,618.5 3168.6,619.3 3169.5,620C3170.5,620.7 3171.6,621 3173,621C3174.9,621 3177.7,620.3 3181.3,619L3183.1,635C3178.3,637.1 3172.9,638.1 3166.8,638.1C3163.1,638.1 3159.7,637.5 3156.8,636.2C3153.8,635 3151.6,633.3 3150.2,631.4C3148.8,629.4 3147.8,626.7 3147.3,623.4C3146.9,621 3146.6,616.2 3146.6,608.9L3146.6,575L3137.2,575L3137.2,558.6L3146.6,558.6L3146.6,543.1L3167.3,531.1L3167.3,558.6L3181.4,558.6Z" style="fill:rgb(11,72,107);fill-rule:nonzero;"/>
        <path d="M3195.7,548.1L3195.7,529.1L3216.3,529.1L3216.3,548.1L3195.7,548.1ZM3195.7,636.4L3195.7,558.6L3216.3,558.6L3216.3,636.4L3195.7,636.4Z" style="fill:rgb(11,72,107);fill-rule:nonzero;"/>
        <path d="M3232.6,596.4C3232.6,589.6 3234.3,582.9 3237.7,576.6C3241.1,570.2 3245.8,565.3 3252,562C3258.2,558.6 3265.1,556.9 3272.7,556.9C3284.5,556.9 3294.1,560.7 3301.6,568.4C3309.1,576 3312.9,585.7 3312.9,597.4C3312.9,609.2 3309.1,618.9 3301.5,626.7C3293.9,634.4 3284.3,638.3 3272.8,638.3C3265.7,638.3 3258.9,636.7 3252.4,633.5C3245.9,630.3 3241,625.6 3237.6,619.3C3234.3,612.9 3232.6,605.3 3232.6,596.4ZM3253.7,597.5C3253.7,605.2 3255.5,611.1 3259.2,615.2C3262.9,619.3 3267.4,621.4 3272.7,621.4C3278.1,621.4 3282.6,619.3 3286.2,615.2C3289.8,611.1 3291.7,605.1 3291.7,597.3C3291.7,589.7 3289.9,583.8 3286.2,579.7C3282.6,575.6 3278.1,573.5 3272.7,573.5C3267.3,573.5 3262.8,575.6 3259.2,579.7C3255.6,583.8 3253.7,589.8 3253.7,597.5Z" style="fill:rgb(11,72,107);fill-rule:nonzero;"/>
        <path d="M3399.7,636.4L3379.1,636.4L3379.1,596.7C3379.1,588.3 3378.7,582.9 3377.8,580.4C3376.9,577.9 3375.5,576 3373.5,574.7C3371.5,573.3 3369.1,572.6 3366.4,572.6C3362.8,572.6 3359.6,573.6 3356.8,575.5C3354,577.5 3352,580 3351,583.3C3350,586.6 3349.4,592.5 3349.4,601.2L3349.4,636.4L3328.8,636.4L3328.8,558.6L3347.9,558.6L3347.9,570C3354.7,561.2 3363.2,556.8 3373.5,556.8C3378,556.8 3382.2,557.6 3386,559.3C3389.8,560.9 3392.6,563 3394.5,565.6C3396.4,568.1 3397.8,571 3398.5,574.2C3399.2,577.4 3399.6,582 3399.6,588L3399.6,636.4L3399.7,636.4Z" style="fill:rgb(11,72,107);fill-rule:nonzero;"/>
        <path d="M3413.4,614.2L3434.1,611.1C3435,615.1 3436.8,618.1 3439.4,620.2C3442.1,622.3 3445.8,623.3 3450.7,623.3C3456,623.3 3460,622.3 3462.7,620.4C3464.5,619 3465.4,617.2 3465.4,614.9C3465.4,613.3 3464.9,612 3463.9,611C3462.9,610 3460.6,609.1 3457,608.3C3440.4,604.6 3429.9,601.3 3425.4,598.3C3419.2,594.1 3416.2,588.3 3416.2,580.8C3416.2,574.1 3418.9,568.4 3424.2,563.8C3429.5,559.2 3437.8,556.9 3449,556.9C3459.6,556.9 3467.6,558.6 3472.7,562.1C3477.9,565.6 3481.4,570.7 3483.4,577.5L3464,581C3463.2,578 3461.6,575.7 3459.3,574C3457,572.4 3453.7,571.6 3449.4,571.6C3444,571.6 3440.1,572.4 3437.8,573.9C3436.2,575 3435.5,576.4 3435.5,578.1C3435.5,579.6 3436.2,580.8 3437.6,581.8C3439.5,583.2 3445.9,585.1 3456.8,587.6C3467.8,590.1 3475.4,593.1 3479.8,596.8C3484.1,600.5 3486.2,605.6 3486.2,612.1C3486.2,619.2 3483.2,625.4 3477.3,630.5C3471.3,635.6 3462.5,638.2 3450.9,638.2C3440.3,638.2 3431.9,636.1 3425.7,631.8C3419.3,627.4 3415.3,621.6 3413.4,614.2Z" style="fill:rgb(11,72,107);fill-rule:nonzero;"/>
    </g>
</svg>
