<?xml version="1.0" encoding="UTF-8" standalone="no"?>
<!DOCTYPE svg PUBLIC "-//W3C//DTD SVG 1.1//EN" "http://www.w3.org/Graphics/SVG/1.1/DTD/svg11.dtd">
<svg width="100%" height="100%" viewBox="0 0 458 458" version="1.1" xmlns="http://www.w3.org/2000/svg" xmlns:xlink="http://www.w3.org/1999/xlink" xml:space="preserve" xmlns:serif="http://www.serif.com/" style="fill-rule:evenodd;clip-rule:evenodd;stroke-miterlimit:10;">
    <g id="Artboard1" transform="matrix(0.912698,0,0,0.961839,17.1611,10.9231)">
        <rect x="-18.803" y="-11.357" width="500.823" height="476.151" style="fill:none;"/>
        <g id="AZUL-1" serif:id="AZUL 1">
            <g transform="matrix(1.09565,-1.15427e-16,1.21642e-16,1.03968,-17.633,-10.7079)">
                <path d="M34.9,149L88.2,101.4" style="fill:none;fill-rule:nonzero;stroke:rgb(30,129,185);stroke-width:6px;"/>
            </g>
            <g transform="matrix(1.09565,-1.15427e-16,1.21642e-16,1.03968,-17.633,-10.7079)">
                <path d="M131.1,178.4L88.2,101.4" style="fill:none;fill-rule:nonzero;stroke:rgb(30,129,185);stroke-width:6px;"/>
            </g>
            <g transform="matrix(1.09565,-1.15427e-16,1.21642e-16,1.03968,-17.633,-10.7079)">
                <path d="M160.6,90.9L88.2,101.4" style="fill:none;fill-rule:nonzero;stroke:rgb(30,129,185);stroke-width:6px;"/>
            </g>
            <g transform="matrix(1.09565,-1.15427e-16,1.21642e-16,1.03968,-17.633,-10.7079)">
                <path d="M173.7,33.2L231.6,111.4" style="fill:none;fill-rule:nonzero;stroke:rgb(30,129,185);stroke-width:6px;"/>
            </g>
            <g transform="matrix(1.09565,-1.15427e-16,1.21642e-16,1.03968,-17.633,-10.7079)">
                <path d="M173.7,33.2L111.2,49.2" style="fill:none;fill-rule:nonzero;stroke:rgb(30,129,185);stroke-width:6px;"/>
            </g>
            <g transform="matrix(1.09565,-1.15427e-16,1.21642e-16,1.03968,-17.633,-10.7079)">
                <path d="M244.2,14.3L314.8,44.1" style="fill:none;fill-rule:nonzero;stroke:rgb(30,129,185);stroke-width:6px;"/>
            </g>
            <g transform="matrix(1.09565,-1.15427e-16,1.21642e-16,1.03968,-17.633,-10.7079)">
                <path d="M231.6,111.4L314.8,44.1" style="fill:none;fill-rule:nonzero;stroke:rgb(30,129,185);stroke-width:6px;"/>
            </g>
            <g transform="matrix(1.09565,-1.15427e-16,1.21642e-16,1.03968,-17.633,-10.7079)">
                <path d="M387.4,100.1L296.5,140.7" style="fill:none;fill-rule:nonzero;stroke:rgb(30,129,185);stroke-width:6px;"/>
            </g>
            <g transform="matrix(1.09565,-1.15427e-16,1.21642e-16,1.03968,-17.633,-10.7079)">
                <path d="M410.8,191L387.4,100.1" style="fill:none;fill-rule:nonzero;stroke:rgb(30,129,185);stroke-width:6px;"/>
            </g>
            <g transform="matrix(1.09565,-1.15427e-16,1.21642e-16,1.03968,-17.633,-10.7079)">
                <path d="M435.6,273.7L410.8,191" style="fill:none;fill-rule:nonzero;stroke:rgb(30,129,185);stroke-width:6px;"/>
            </g>
            <g transform="matrix(1.09565,-1.15427e-16,1.21642e-16,1.03968,-17.633,-10.7079)">
                <path d="M331.6,273.7L410.8,191" style="fill:none;fill-rule:nonzero;stroke:rgb(30,129,185);stroke-width:6px;"/>
            </g>
            <g transform="matrix(1.09565,-1.15427e-16,1.21642e-16,1.03968,-17.633,-10.7079)">
                <path d="M412,344.7L331.6,273.7" style="fill:none;fill-rule:nonzero;stroke:rgb(30,129,185);stroke-width:6px;"/>
            </g>
            <g transform="matrix(1.09565,-1.15427e-16,1.21642e-16,1.03968,-17.633,-10.7079)">
                <path d="M335,381.8L235.4,346.7" style="fill:none;fill-rule:nonzero;stroke:rgb(30,129,185);stroke-width:6px;"/>
            </g>
            <g transform="matrix(1.09565,-1.15427e-16,1.21642e-16,1.03968,-17.633,-10.7079)">
                <path d="M331.6,273.7L235.4,346.7" style="fill:none;fill-rule:nonzero;stroke:rgb(30,129,185);stroke-width:6px;"/>
            </g>
            <g transform="matrix(1.09565,-1.15427e-16,1.21642e-16,1.03968,-17.633,-10.7079)">
                <path d="M257.4,442.8L335,381.8" style="fill:none;fill-rule:nonzero;stroke:rgb(30,129,185);stroke-width:6px;"/>
            </g>
            <g transform="matrix(1.09565,-1.15427e-16,1.21642e-16,1.03968,-17.633,-10.7079)">
                <path d="M176.8,432.9L235.4,346.7" style="fill:none;fill-rule:nonzero;stroke:rgb(30,129,185);stroke-width:6px;"/>
            </g>
            <g transform="matrix(1.09565,-1.15427e-16,1.21642e-16,1.03968,-17.633,-10.7079)">
                <path d="M108.5,393L176.8,432.9" style="fill:none;fill-rule:nonzero;stroke:rgb(30,129,185);stroke-width:6px;"/>
            </g>
            <g transform="matrix(1.09565,-1.15427e-16,1.21642e-16,1.03968,-17.633,-10.7079)">
                <path d="M57.9,358.9L66.3,283.9" style="fill:none;fill-rule:nonzero;stroke:rgb(30,129,185);stroke-width:6px;"/>
            </g>
            <g transform="matrix(1.09565,-1.15427e-16,1.21642e-16,1.03968,-17.633,-10.7079)">
                <path d="M157.7,307.1L66.3,283.9" style="fill:none;fill-rule:nonzero;stroke:rgb(30,129,185);stroke-width:6px;"/>
            </g>
            <g transform="matrix(1.09565,-1.15427e-16,1.21642e-16,1.03968,-17.633,-10.7079)">
                <path d="M131.1,178.4L66.3,283.9" style="fill:none;fill-rule:nonzero;stroke:rgb(30,129,185);stroke-width:6px;"/>
            </g>
            <g transform="matrix(1.09565,-1.15427e-16,1.21642e-16,1.03968,-17.633,-10.7079)">
                <path d="M63.9,202.7L66.3,283.9" style="fill:none;fill-rule:nonzero;stroke:rgb(30,129,185);stroke-width:6px;"/>
            </g>
            <g transform="matrix(1.09565,-1.15427e-16,1.21642e-16,1.03968,-17.633,-10.7079)">
                <path d="M14.3,228.8L63.9,202.7" style="fill:none;fill-rule:nonzero;stroke:rgb(30,129,185);stroke-width:6px;"/>
            </g>
            <g transform="matrix(0.42588,-0.957957,1.00953,0.404122,-179.06,552.838)">
                <circle cx="335" cy="381.8" r="44.8" style="fill:rgb(30,129,185);"/>
            </g>
            <g transform="matrix(0.42588,-0.957957,1.00953,0.404122,140.477,424.04)">
                <circle cx="387.4" cy="100.1" r="25.9" style="fill:rgb(30,129,185);"/>
            </g>
            <g transform="matrix(0.42588,-0.957957,1.00953,0.404122,148.37,318.863)">
                <ellipse cx="314.8" cy="44.1" rx="26.1" ry="25.9" style="fill:rgb(30,129,185);"/>
            </g>
            <g transform="matrix(0.42588,-0.957957,1.00953,0.404122,24.6591,282.01)">
                <circle cx="231.6" cy="111.4" r="25.9" style="fill:rgb(30,129,185);"/>
            </g>
            <g transform="matrix(0.42588,-0.957957,1.00953,0.404122,64.8929,176.712)">
                <circle cx="173.7" cy="33.1" r="25.9" style="fill:rgb(30,129,185);"/>
            </g>
            <g transform="matrix(0.42588,-0.957957,1.00953,0.404122,-342.037,343.074)">
                <circle cx="108.5" cy="393" r="25.9" style="fill:rgb(30,129,185);"/>
            </g>
            <g transform="matrix(0.42588,-0.957957,1.00953,0.404122,-60.9258,138.229)">
                <circle cx="88.2" cy="101.4" r="25.9" style="fill:rgb(30,129,185);"/>
            </g>
            <g transform="matrix(0.42588,-0.957957,1.00953,0.404122,-210.277,435.128)">
                <circle cx="235.4" cy="346.7" r="25.9" style="fill:rgb(30,129,185);"/>
            </g>
            <g transform="matrix(0.42588,-0.957957,1.00953,0.404122,-71.4082,480.363)">
                <circle cx="331.6" cy="272.9" r="19.1" style="fill:rgb(30,129,185);"/>
            </g>
            <g transform="matrix(0.42588,-0.957957,1.00953,0.404122,-2.4552,580.552)">
                <circle cx="435.6" cy="273.7" r="19.1" style="fill:rgb(30,129,185);"/>
            </g>
            <g transform="matrix(0.42588,-0.957957,1.00953,0.404122,38.5628,362.764)">
                <circle cx="296.5" cy="140.7" r="19.1" style="fill:rgb(30,129,185);"/>
            </g>
            <g transform="matrix(0.42588,-0.957957,1.00953,0.404122,-110.247,228.298)">
                <circle cx="131.1" cy="178.4" r="19.1" style="fill:rgb(30,129,185);"/>
            </g>
            <g transform="matrix(0.42588,-0.957957,1.00953,0.404122,-2.1769,200.921)">
                <circle cx="160.6" cy="90.9" r="19.1" style="fill:rgb(30,129,185);"/>
            </g>
            <g transform="matrix(0.42588,-0.957957,1.00953,0.404122,-145.059,117.502)">
                <circle cx="34.9" cy="149.1" r="19.1" style="fill:rgb(30,129,185);"/>
            </g>
            <g transform="matrix(0.42588,-0.957957,1.00953,0.404122,-179.876,179.309)">
                <circle cx="63.8" cy="202.7" r="19.1" style="fill:rgb(30,129,185);"/>
            </g>
            <g transform="matrix(0.42588,-0.957957,1.00953,0.404122,-336.545,433.822)">
                <circle cx="176.8" cy="432.9" r="19.1" style="fill:rgb(30,129,185);"/>
            </g>
            <g transform="matrix(0.42588,-0.957957,1.00953,0.404122,-292.547,517.353)">
                <circle cx="257.5" cy="442.8" r="14.3" style="fill:rgb(30,129,185);"/>
            </g>
            <g transform="matrix(0.42588,-0.957957,1.00953,0.404122,131.137,232.349)">
                <circle cx="244.2" cy="14.3" r="14.3" style="fill:rgb(30,129,185);"/>
            </g>
            <g transform="matrix(0.42588,-0.957957,1.00953,0.404122,-341.518,272.834)">
                <circle cx="57.9" cy="358.9" r="14.3" style="fill:rgb(30,129,185);"/>
            </g>
            <g transform="matrix(0.42588,-0.957957,1.00953,0.404122,6.83089,127.089)">
                <circle cx="111.2" cy="49.2" r="14.3" style="fill:rgb(30,129,185);"/>
            </g>
            <g transform="matrix(0.42588,-0.957957,1.00953,0.404122,-239.373,148.368)">
                <circle cx="14.3" cy="228.8" r="14.3" style="fill:rgb(30,129,185);"/>
            </g>
            <g transform="matrix(0.42588,-0.957957,1.00953,0.404122,-260.176,233.28)">
                <circle cx="66.3" cy="283.9" r="44.8" style="fill:rgb(30,129,185);"/>
            </g>
            <g transform="matrix(0.42588,-0.957957,1.00953,0.404122,64.3226,504.187)">
                <circle cx="410.8" cy="191" r="44.8" style="fill:rgb(30,129,185);"/>
            </g>
            <g transform="matrix(0.42588,-0.957957,1.00953,0.404122,-89.9619,603.128)">
                <circle cx="412.1" cy="344.7" r="14.3" style="fill:rgb(30,129,185);"/>
            </g>
            <g transform="matrix(0.42588,-0.957957,1.00953,0.404122,-222.331,335.557)">
                <circle cx="157.7" cy="307.1" r="14.3" style="fill:rgb(30,129,185);"/>
            </g>
        </g>
    </g>
</svg>
