<?xml version="1.0" encoding="utf-8"?>
<!-- Generator: Adobe Illustrator 21.0.0, SVG Export Plug-In . SVG Version: 6.00 Build 0)  -->
<svg version="1.1" id="Layer_1" xmlns="http://www.w3.org/2000/svg" xmlns:xlink="http://www.w3.org/1999/xlink" x="0px" y="0px"
	 viewBox="0 0 454.7 457.1" style="enable-background:new 0 0 454.7 457.1;" xml:space="preserve">
<style type="text/css">
	.st0{display:none;}
	.st1{display:inline;fill:none;stroke:#000000;stroke-miterlimit:10;}
	.st2{fill:none;stroke:#0E5477;stroke-width:6;stroke-miterlimit:10;}
	.st3{fill:#0E5477;}
</style>
<g class="st0">
	
		<ellipse transform="matrix(0.3887 -0.9214 0.9214 0.3887 -70.6658 351.6916)" class="st1" cx="229.7" cy="229.1" rx="229.7" ry="229.7"/>
	
		<ellipse transform="matrix(0.3887 -0.9214 0.9214 0.3887 -70.6658 351.6916)" class="st1" cx="229.7" cy="229.1" rx="91.3" ry="91.3"/>
</g>
<g>
	<line class="st2" x1="34.9" y1="149" x2="88.2" y2="101.4"/>
	<line class="st2" x1="131.1" y1="178.4" x2="88.2" y2="101.4"/>
	<line class="st2" x1="160.6" y1="90.9" x2="88.2" y2="101.4"/>
	<line class="st2" x1="173.7" y1="33.2" x2="231.6" y2="111.4"/>
	<line class="st2" x1="173.7" y1="33.2" x2="111.2" y2="49.2"/>
	<line class="st2" x1="244.2" y1="14.3" x2="314.8" y2="44.1"/>
	<line class="st2" x1="231.6" y1="111.4" x2="314.8" y2="44.1"/>
	<line class="st2" x1="387.4" y1="100.1" x2="296.5" y2="140.7"/>
	<line class="st2" x1="410.8" y1="191" x2="387.4" y2="100.1"/>
	<line class="st2" x1="435.6" y1="273.7" x2="410.8" y2="191"/>
	<line class="st2" x1="331.6" y1="273.7" x2="410.8" y2="191"/>
	<line class="st2" x1="412" y1="344.7" x2="331.6" y2="273.7"/>
	<line class="st2" x1="335" y1="381.8" x2="235.4" y2="346.7"/>
	<line class="st2" x1="331.6" y1="273.7" x2="235.4" y2="346.7"/>
	<line class="st2" x1="257.4" y1="442.8" x2="335" y2="381.8"/>
	<line class="st2" x1="176.8" y1="432.9" x2="235.4" y2="346.7"/>
	<line class="st2" x1="108.5" y1="393" x2="176.8" y2="432.9"/>
	<line class="st2" x1="57.9" y1="358.9" x2="66.3" y2="283.9"/>
	<line class="st2" x1="157.7" y1="307.1" x2="66.3" y2="283.9"/>
	<line class="st2" x1="131.1" y1="178.4" x2="66.3" y2="283.9"/>
	<line class="st2" x1="63.9" y1="202.7" x2="66.3" y2="283.9"/>
	<line class="st2" x1="14.3" y1="228.8" x2="63.9" y2="202.7"/>
</g>
<g>
	
		<ellipse transform="matrix(0.3887 -0.9214 0.9214 0.3887 -147.0111 542.0284)" class="st3" cx="335" cy="381.8" rx="44.8" ry="44.8"/>
	
		<ellipse transform="matrix(0.3887 -0.9214 0.9214 0.3887 144.63 418.1455)" class="st3" cx="387.4" cy="100.1" rx="25.9" ry="25.9"/>
	
		<ellipse transform="matrix(0.3887 -0.9214 0.9214 0.3887 151.8341 316.9823)" class="st3" cx="314.8" cy="44.1" rx="26.1" ry="25.9"/>
	
		<ellipse transform="matrix(0.3887 -0.9214 0.9214 0.3887 38.9233 281.5357)" class="st3" cx="231.6" cy="111.4" rx="25.9" ry="25.9"/>
	
		<ellipse transform="matrix(0.3887 -0.9214 0.9214 0.3887 75.6446 180.2559)" class="st3" cx="173.7" cy="33.1" rx="25.9" ry="25.9"/>
	
		<ellipse transform="matrix(0.3887 -0.9214 0.9214 0.3887 -295.7601 340.269)" class="st3" cx="108.5" cy="393" rx="25.9" ry="25.9"/>
	
		<ellipse transform="matrix(0.3887 -0.9214 0.9214 0.3887 -39.4693 143.2259)" class="st3" cx="88.2" cy="101.4" rx="25.9" ry="25.9"/>
	
		<ellipse transform="matrix(0.3887 -0.9214 0.9214 0.3887 -175.5026 428.8105)" class="st3" cx="235.4" cy="346.7" rx="25.9" ry="25.9"/>
	
		<ellipse transform="matrix(0.3887 -0.9214 0.9214 0.3887 -48.7572 472.3196)" class="st3" cx="331.6" cy="272.9" rx="19.1" ry="19.1"/>
	
		<ellipse transform="matrix(0.3887 -0.9214 0.9214 0.3887 14.1761 568.6844)" class="st3" cx="435.6" cy="273.7" rx="19.1" ry="19.1"/>
	
		<ellipse transform="matrix(0.3887 -0.9214 0.9214 0.3887 51.6132 359.2075)" class="st3" cx="296.5" cy="140.7" rx="19.1" ry="19.1"/>
	
		<ellipse transform="matrix(0.3887 -0.9214 0.9214 0.3887 -84.205 229.8729)" class="st3" cx="131.1" cy="178.4" rx="19.1" ry="19.1"/>
	
		<ellipse transform="matrix(0.3887 -0.9214 0.9214 0.3887 14.4301 203.541)" class="st3" cx="160.6" cy="90.9" rx="19.1" ry="19.1"/>
	
		<ellipse transform="matrix(0.3887 -0.9214 0.9214 0.3887 -115.9783 123.3049)" class="st3" cx="34.9" cy="149.1" rx="19.1" ry="19.1"/>
	
		<ellipse transform="matrix(0.3887 -0.9214 0.9214 0.3887 -147.7558 182.7533)" class="st3" cx="63.8" cy="202.7" rx="19.1" ry="19.1"/>
	
		<ellipse transform="matrix(0.3887 -0.9214 0.9214 0.3887 -290.7467 427.5544)" class="st3" cx="176.8" cy="432.9" rx="19.1" ry="19.1"/>
	
		<ellipse transform="matrix(0.3887 -0.9214 0.9214 0.3887 -250.5906 507.898)" class="st3" cx="257.5" cy="442.8" rx="14.3" ry="14.3"/>
	
		<ellipse transform="matrix(0.3887 -0.9214 0.9214 0.3887 136.1056 233.7697)" class="st3" cx="244.2" cy="14.3" rx="14.3" ry="14.3"/>
	
		<ellipse transform="matrix(0.3887 -0.9214 0.9214 0.3887 -295.2856 272.7097)" class="st3" cx="57.9" cy="358.9" rx="14.3" ry="14.3"/>
	
		<ellipse transform="matrix(0.3887 -0.9214 0.9214 0.3887 22.6515 132.5269)" class="st3" cx="111.2" cy="49.2" rx="14.3" ry="14.3"/>
	
		<ellipse transform="matrix(0.3887 -0.9214 0.9214 0.3887 -202.0581 152.9936)" class="st3" cx="14.3" cy="228.8" rx="14.3" ry="14.3"/>
	
		<ellipse transform="matrix(0.3887 -0.9214 0.9214 0.3887 -221.0456 234.6651)" class="st3" cx="66.3" cy="283.9" rx="44.8" ry="44.8"/>
	
		<ellipse transform="matrix(0.3887 -0.9214 0.9214 0.3887 75.1241 495.2344)" class="st3" cx="410.8" cy="191" rx="44.8" ry="44.8"/>
	
		<ellipse transform="matrix(0.3887 -0.9214 0.9214 0.3887 -65.6911 590.3992)" class="st3" cx="412.1" cy="344.7" rx="14.3" ry="14.3"/>
	
		<ellipse transform="matrix(0.3887 -0.9214 0.9214 0.3887 -186.5042 333.0388)" class="st3" cx="157.7" cy="307.1" rx="14.3" ry="14.3"/>
</g>
</svg>
