<?xml version="1.0" encoding="UTF-8" standalone="no"?>
<!DOCTYPE svg PUBLIC "-//W3C//DTD SVG 1.1//EN" "http://www.w3.org/Graphics/SVG/1.1/DTD/svg11.dtd">
<svg width="100%" height="100%" viewBox="0 0 3499 671" version="1.1" xmlns="http://www.w3.org/2000/svg" xmlns:xlink="http://www.w3.org/1999/xlink" xml:space="preserve" xmlns:serif="http://www.serif.com/" style="fill-rule:evenodd;clip-rule:evenodd;stroke-miterlimit:10;">
    <g id="Artboard3" transform="matrix(1,0,0,1,0,2.83048)">
        <rect x="0" y="-2.83" width="3498.66" height="670.83" style="fill:none;"/>
        <clipPath id="_clip1">
            <rect x="0" y="-2.83" width="3498.66" height="670.83"/>
        </clipPath>
        <g clip-path="url(#_clip1)">
            <g id="Artboard2" transform="matrix(0.985563,0,0,0.818065,0,57.0588)">
                <rect x="0" y="-69.541" width="3149.89" height="815.448" style="fill:none;"/>
                <g>
                    <g id="Artboard1" transform="matrix(0.754017,0,0,0.665557,714.527,90.5478)">
                        <rect x="-947.627" y="-235.812" width="4172.5" height="855.704" style="fill:none;"/>
                        <g>
                            <g transform="matrix(71.5043,0,0,97.5943,-95753.1,-24144.3)">
                                <g>
                                    <g transform="matrix(1,0,0,1,1325,253.613)">
                                        <text x="0px" y="0px" style="font-family:'ArialMT', 'Arial', sans-serif;font-size:12px;fill:rgb(11,72,107);">P</text>
                                    </g>
                                    <g transform="matrix(1,0,0,1,1342.79,253.613)">
                                        <text x="0px" y="0px" style="font-family:'ArialMT', 'Arial', sans-serif;font-size:12px;fill:rgb(11,72,107);">RE</text>
                                    </g>
                                </g>
                                <g transform="matrix(1,0,0,1,1359.46,253.613)">
                                    <text x="0px" y="0px" style="font-family:'ArialMT', 'Arial', sans-serif;font-size:12px;fill:rgb(30,129,185);">MS</text>
                                </g>
                            </g>
                            <g transform="matrix(1.34565,-2.03909e-16,1.49398e-16,1.83666,-404.939,-229.567)">
                                <path d="M34.9,149L88.2,101.4" style="fill:none;fill-rule:nonzero;stroke:rgb(30,129,185);stroke-width:6px;"/>
                            </g>
                            <g transform="matrix(1.34565,-2.03909e-16,1.49398e-16,1.83666,-404.939,-229.567)">
                                <path d="M131.1,178.4L88.2,101.4" style="fill:none;fill-rule:nonzero;stroke:rgb(30,129,185);stroke-width:6px;"/>
                            </g>
                            <g transform="matrix(1.34565,-2.03909e-16,1.49398e-16,1.83666,-404.939,-229.567)">
                                <path d="M160.6,90.9L88.2,101.4" style="fill:none;fill-rule:nonzero;stroke:rgb(30,129,185);stroke-width:6px;"/>
                            </g>
                            <g transform="matrix(1.34565,-2.03909e-16,1.49398e-16,1.83666,-404.939,-229.567)">
                                <path d="M173.7,33.2L231.6,111.4" style="fill:none;fill-rule:nonzero;stroke:rgb(30,129,185);stroke-width:6px;"/>
                            </g>
                            <g transform="matrix(1.34565,-2.03909e-16,1.49398e-16,1.83666,-404.939,-229.567)">
                                <path d="M173.7,33.2L111.2,49.2" style="fill:none;fill-rule:nonzero;stroke:rgb(30,129,185);stroke-width:6px;"/>
                            </g>
                            <g transform="matrix(1.34565,-2.03909e-16,1.49398e-16,1.83666,-404.939,-229.567)">
                                <path d="M244.2,14.3L314.8,44.1" style="fill:none;fill-rule:nonzero;stroke:rgb(30,129,185);stroke-width:6px;"/>
                            </g>
                            <g transform="matrix(1.34565,-2.03909e-16,1.49398e-16,1.83666,-404.939,-229.567)">
                                <path d="M231.6,111.4L314.8,44.1" style="fill:none;fill-rule:nonzero;stroke:rgb(30,129,185);stroke-width:6px;"/>
                            </g>
                            <g transform="matrix(1.34565,-2.03909e-16,1.49398e-16,1.83666,-404.939,-229.567)">
                                <path d="M387.4,100.1L296.5,140.7" style="fill:none;fill-rule:nonzero;stroke:rgb(30,129,185);stroke-width:6px;"/>
                            </g>
                            <g transform="matrix(1.34565,-2.03909e-16,1.49398e-16,1.83666,-404.939,-229.567)">
                                <path d="M410.8,191L387.4,100.1" style="fill:none;fill-rule:nonzero;stroke:rgb(30,129,185);stroke-width:6px;"/>
                            </g>
                            <g transform="matrix(1.34565,-2.03909e-16,1.49398e-16,1.83666,-404.939,-229.567)">
                                <path d="M435.6,273.7L410.8,191" style="fill:none;fill-rule:nonzero;stroke:rgb(30,129,185);stroke-width:6px;"/>
                            </g>
                            <g transform="matrix(1.34565,-2.03909e-16,1.49398e-16,1.83666,-404.939,-229.567)">
                                <path d="M331.6,273.7L410.8,191" style="fill:none;fill-rule:nonzero;stroke:rgb(30,129,185);stroke-width:6px;"/>
                            </g>
                            <g transform="matrix(1.34565,-2.03909e-16,1.49398e-16,1.83666,-404.939,-229.567)">
                                <path d="M412,344.7L331.6,273.7" style="fill:none;fill-rule:nonzero;stroke:rgb(30,129,185);stroke-width:6px;"/>
                            </g>
                            <g transform="matrix(1.34565,-2.03909e-16,1.49398e-16,1.83666,-404.939,-229.567)">
                                <path d="M335,381.8L235.4,346.7" style="fill:none;fill-rule:nonzero;stroke:rgb(30,129,185);stroke-width:6px;"/>
                            </g>
                            <g transform="matrix(1.34565,-2.03909e-16,1.49398e-16,1.83666,-404.939,-229.567)">
                                <path d="M331.6,273.7L235.4,346.7" style="fill:none;fill-rule:nonzero;stroke:rgb(30,129,185);stroke-width:6px;"/>
                            </g>
                            <g transform="matrix(1.34565,-2.03909e-16,1.49398e-16,1.83666,-404.939,-229.567)">
                                <path d="M257.4,442.8L335,381.8" style="fill:none;fill-rule:nonzero;stroke:rgb(30,129,185);stroke-width:6px;"/>
                            </g>
                            <g transform="matrix(1.34565,-2.03909e-16,1.49398e-16,1.83666,-404.939,-229.567)">
                                <path d="M176.8,432.9L235.4,346.7" style="fill:none;fill-rule:nonzero;stroke:rgb(30,129,185);stroke-width:6px;"/>
                            </g>
                            <g transform="matrix(1.34565,-2.03909e-16,1.49398e-16,1.83666,-404.939,-229.567)">
                                <path d="M108.5,393L176.8,432.9" style="fill:none;fill-rule:nonzero;stroke:rgb(30,129,185);stroke-width:6px;"/>
                            </g>
                            <g transform="matrix(1.34565,-2.03909e-16,1.49398e-16,1.83666,-404.939,-229.567)">
                                <path d="M57.9,358.9L66.3,283.9" style="fill:none;fill-rule:nonzero;stroke:rgb(30,129,185);stroke-width:6px;"/>
                            </g>
                            <g transform="matrix(1.34565,-2.03909e-16,1.49398e-16,1.83666,-404.939,-229.567)">
                                <path d="M157.7,307.1L66.3,283.9" style="fill:none;fill-rule:nonzero;stroke:rgb(30,129,185);stroke-width:6px;"/>
                            </g>
                            <g transform="matrix(1.34565,-2.03909e-16,1.49398e-16,1.83666,-404.939,-229.567)">
                                <path d="M131.1,178.4L66.3,283.9" style="fill:none;fill-rule:nonzero;stroke:rgb(30,129,185);stroke-width:6px;"/>
                            </g>
                            <g transform="matrix(1.34565,-2.03909e-16,1.49398e-16,1.83666,-404.939,-229.567)">
                                <path d="M63.9,202.7L66.3,283.9" style="fill:none;fill-rule:nonzero;stroke:rgb(30,129,185);stroke-width:6px;"/>
                            </g>
                            <g transform="matrix(1.34565,-2.03909e-16,1.49398e-16,1.83666,-404.939,-229.567)">
                                <path d="M14.3,228.8L63.9,202.7" style="fill:none;fill-rule:nonzero;stroke:rgb(30,129,185);stroke-width:6px;"/>
                            </g>
                            <g transform="matrix(0.523057,-1.69229,1.23988,0.713907,-603.201,765.972)">
                                <circle cx="335" cy="381.8" r="44.8" style="fill:rgb(30,129,185);"/>
                            </g>
                            <g transform="matrix(0.523057,-1.69229,1.23988,0.713907,-210.752,538.442)">
                                <circle cx="387.4" cy="100.1" r="25.9" style="fill:rgb(30,129,185);"/>
                            </g>
                            <g transform="matrix(0.523057,-1.69229,1.23988,0.713907,-201.058,352.641)">
                                <ellipse cx="314.8" cy="44.1" rx="26.1" ry="25.9" style="fill:rgb(30,129,185);"/>
                            </g>
                            <g transform="matrix(0.523057,-1.69229,1.23988,0.713907,-352.997,287.538)">
                                <circle cx="231.6" cy="111.4" r="25.9" style="fill:rgb(30,129,185);"/>
                            </g>
                            <g transform="matrix(0.523057,-1.69229,1.23988,0.713907,-303.583,101.522)">
                                <circle cx="173.7" cy="33.1" r="25.9" style="fill:rgb(30,129,185);"/>
                            </g>
                            <g transform="matrix(0.523057,-1.69229,1.23988,0.713907,-803.365,395.411)">
                                <circle cx="108.5" cy="393" r="25.9" style="fill:rgb(30,129,185);"/>
                            </g>
                            <g transform="matrix(0.523057,-1.69229,1.23988,0.713907,-458.111,33.5396)">
                                <circle cx="88.2" cy="101.4" r="25.9" style="fill:rgb(30,129,185);"/>
                            </g>
                            <g transform="matrix(0.523057,-1.69229,1.23988,0.713907,-641.541,558.03)">
                                <circle cx="235.4" cy="346.7" r="25.9" style="fill:rgb(30,129,185);"/>
                            </g>
                            <g transform="matrix(0.523057,-1.69229,1.23988,0.713907,-470.985,637.941)">
                                <circle cx="331.6" cy="272.9" r="19.1" style="fill:rgb(30,129,185);"/>
                            </g>
                            <g transform="matrix(0.523057,-1.69229,1.23988,0.713907,-386.298,814.931)">
                                <circle cx="435.6" cy="273.7" r="19.1" style="fill:rgb(30,129,185);"/>
                            </g>
                            <g transform="matrix(0.523057,-1.69229,1.23988,0.713907,-335.921,430.195)">
                                <circle cx="296.5" cy="140.7" r="19.1" style="fill:rgb(30,129,185);"/>
                            </g>
                            <g transform="matrix(0.523057,-1.69229,1.23988,0.713907,-518.686,192.652)">
                                <circle cx="131.1" cy="178.4" r="19.1" style="fill:rgb(30,129,185);"/>
                            </g>
                            <g transform="matrix(0.523057,-1.69229,1.23988,0.713907,-385.957,144.289)">
                                <circle cx="160.6" cy="90.9" r="19.1" style="fill:rgb(30,129,185);"/>
                            </g>
                            <g transform="matrix(0.523057,-1.69229,1.23988,0.713907,-561.441,-3.07595)">
                                <circle cx="34.9" cy="149.1" r="19.1" style="fill:rgb(30,129,185);"/>
                            </g>
                            <g transform="matrix(0.523057,-1.69229,1.23988,0.713907,-604.203,106.11)">
                                <circle cx="63.8" cy="202.7" r="19.1" style="fill:rgb(30,129,185);"/>
                            </g>
                            <g transform="matrix(0.523057,-1.69229,1.23988,0.713907,-796.62,555.723)">
                                <circle cx="176.8" cy="432.9" r="19.1" style="fill:rgb(30,129,185);"/>
                            </g>
                            <g transform="matrix(0.523057,-1.69229,1.23988,0.713907,-742.583,703.286)">
                                <circle cx="257.5" cy="442.8" r="14.3" style="fill:rgb(30,129,185);"/>
                            </g>
                            <g transform="matrix(0.523057,-1.69229,1.23988,0.713907,-222.223,199.808)">
                                <circle cx="244.2" cy="14.3" r="14.3" style="fill:rgb(30,129,185);"/>
                            </g>
                            <g transform="matrix(0.523057,-1.69229,1.23988,0.713907,-802.728,271.328)">
                                <circle cx="57.9" cy="358.9" r="14.3" style="fill:rgb(30,129,185);"/>
                            </g>
                            <g transform="matrix(0.523057,-1.69229,1.23988,0.713907,-374.893,13.8601)">
                                <circle cx="111.2" cy="49.2" r="14.3" style="fill:rgb(30,129,185);"/>
                            </g>
                            <g transform="matrix(0.523057,-1.69229,1.23988,0.713907,-677.276,51.4508)">
                                <circle cx="14.3" cy="228.8" r="14.3" style="fill:rgb(30,129,185);"/>
                            </g>
                            <g transform="matrix(0.523057,-1.69229,1.23988,0.713907,-702.826,201.453)">
                                <circle cx="66.3" cy="283.9" r="44.8" style="fill:rgb(30,129,185);"/>
                            </g>
                            <g transform="matrix(0.523057,-1.69229,1.23988,0.713907,-304.283,680.027)">
                                <circle cx="410.8" cy="191" r="44.8" style="fill:rgb(30,129,185);"/>
                            </g>
                            <g transform="matrix(0.523057,-1.69229,1.23988,0.713907,-493.772,854.813)">
                                <circle cx="412.1" cy="344.7" r="14.3" style="fill:rgb(30,129,185);"/>
                            </g>
                            <g transform="matrix(0.523057,-1.69229,1.23988,0.713907,-656.345,382.132)">
                                <circle cx="157.7" cy="307.1" r="14.3" style="fill:rgb(30,129,185);"/>
                            </g>
                        </g>
                    </g>
                    <g transform="matrix(12.7668,0,0,15.3808,408.992,704.209)">
                        <g>
                            <g>
                                <g>
                                    <g>
                                        <text x="0px" y="0px" style="font-family:'Arial-BoldMT', 'Arial', sans-serif;font-weight:700;font-size:11.887px;fill:rgb(30,129,185);">A<tspan x="8.143px 11.446px " y="0px 0px "> P</tspan>ore Generator for</text>
                                        <text x="120.437px" y="0px" style="font-family:'Arial-BoldMT', 'Arial', sans-serif;font-weight:700;font-size:11.887px;fill:rgb(11,72,107);">Molecular Simulations</text>
                                    </g>
                                </g>
                            </g>
                        </g>
                    </g>
                </g>
            </g>
        </g>
    </g>
</svg>
