<?xml version="1.0" encoding="utf-8"?>
<!-- Generator: Adobe Illustrator 21.0.0, SVG Export Plug-In . SVG Version: 6.00 Build 0)  -->
<svg version="1.1" id="Layer_1" xmlns="http://www.w3.org/2000/svg" xmlns:xlink="http://www.w3.org/1999/xlink" x="0px" y="0px"
	 viewBox="0 0 3486 636.4" style="enable-background:new 0 0 3486 636.4;" xml:space="preserve">
<style type="text/css">
	.st0{fill:none;stroke:#0E5477;stroke-width:6;stroke-miterlimit:10;}
	.st1{fill:#0E5477;}
	.st2{fill:#046D8B;}
</style>
<g>
	<line class="st0" x1="416.4" y1="149" x2="469.7" y2="101.4"/>
	<line class="st0" x1="512.6" y1="178.4" x2="469.7" y2="101.4"/>
	<line class="st0" x1="542.1" y1="90.9" x2="469.7" y2="101.4"/>
	<line class="st0" x1="555.2" y1="33.2" x2="613.1" y2="111.4"/>
	<line class="st0" x1="555.2" y1="33.2" x2="492.7" y2="49.2"/>
	<line class="st0" x1="625.7" y1="14.3" x2="696.3" y2="44.1"/>
	<line class="st0" x1="613.1" y1="111.4" x2="696.3" y2="44.1"/>
	<line class="st0" x1="768.9" y1="100.1" x2="678" y2="140.7"/>
	<line class="st0" x1="792.3" y1="191" x2="768.9" y2="100.1"/>
	<line class="st0" x1="817.1" y1="273.7" x2="792.3" y2="191"/>
	<line class="st0" x1="713.1" y1="273.7" x2="792.3" y2="191"/>
	<line class="st0" x1="793.5" y1="344.7" x2="713.1" y2="273.7"/>
	<line class="st0" x1="716.5" y1="381.8" x2="616.9" y2="346.7"/>
	<line class="st0" x1="713.1" y1="273.7" x2="616.9" y2="346.7"/>
	<line class="st0" x1="638.9" y1="442.8" x2="716.5" y2="381.8"/>
	<line class="st0" x1="558.3" y1="432.9" x2="616.9" y2="346.7"/>
	<line class="st0" x1="490" y1="393" x2="558.3" y2="432.9"/>
	<line class="st0" x1="439.4" y1="358.9" x2="447.8" y2="283.9"/>
	<line class="st0" x1="539.2" y1="307.1" x2="447.8" y2="283.9"/>
	<line class="st0" x1="512.6" y1="178.4" x2="447.8" y2="283.9"/>
	<line class="st0" x1="445.4" y1="202.7" x2="447.8" y2="283.9"/>
	<line class="st0" x1="395.8" y1="228.8" x2="445.4" y2="202.7"/>
</g>
<g>
	
		<ellipse transform="matrix(0.3887 -0.9214 0.9214 0.3887 86.2529 893.5341)" class="st1" cx="716.5" cy="381.8" rx="44.8" ry="44.8"/>
	
		<ellipse transform="matrix(0.3887 -0.9214 0.9214 0.3887 377.8304 769.6775)" class="st1" cx="768.9" cy="100.1" rx="25.9" ry="25.9"/>
	
		<ellipse transform="matrix(0.3887 -0.9214 0.9214 0.3887 385.0712 668.5174)" class="st1" cx="696.3" cy="44.1" rx="26.1" ry="25.9"/>
	
		<ellipse transform="matrix(0.3887 -0.9214 0.9214 0.3887 272.1095 633.0084)" class="st1" cx="613.1" cy="111.4" rx="25.9" ry="25.9"/>
	
		<ellipse transform="matrix(0.3887 -0.9214 0.9214 0.3887 308.9002 531.7272)" class="st1" cx="555.2" cy="33.1" rx="25.9" ry="25.9"/>
	
		<ellipse transform="matrix(0.3887 -0.9214 0.9214 0.3887 -62.4858 691.7536)" class="st1" cx="490.1" cy="393" rx="25.9" ry="25.9"/>
	
		<ellipse transform="matrix(0.3887 -0.9214 0.9214 0.3887 193.7566 494.7788)" class="st1" cx="469.7" cy="101.4" rx="25.9" ry="25.9"/>
	
		<ellipse transform="matrix(0.3887 -0.9214 0.9214 0.3887 57.7291 780.3636)" class="st1" cx="616.9" cy="346.7" rx="25.9" ry="25.9"/>
	
		<ellipse transform="matrix(0.3887 -0.9214 0.9214 0.3887 184.5116 823.8186)" class="st1" cx="713.1" cy="272.9" rx="19.1" ry="19.1"/>
	
		<ellipse transform="matrix(0.3887 -0.9214 0.9214 0.3887 247.4718 920.2281)" class="st1" cx="817.2" cy="273.6" rx="19.1" ry="19.1"/>
	
		<ellipse transform="matrix(0.3887 -0.9214 0.9214 0.3887 284.831 710.7058)" class="st1" cx="678" cy="140.7" rx="19.1" ry="19.1"/>
	
		<ellipse transform="matrix(0.3887 -0.9214 0.9214 0.3887 148.9836 581.3948)" class="st1" cx="512.6" cy="178.4" rx="19.1" ry="19.1"/>
	
		<ellipse transform="matrix(0.3887 -0.9214 0.9214 0.3887 247.647 555.0513)" class="st1" cx="542.1" cy="90.9" rx="19.1" ry="19.1"/>
	
		<ellipse transform="matrix(0.3887 -0.9214 0.9214 0.3887 117.2107 474.8703)" class="st1" cx="416.5" cy="149.1" rx="19.1" ry="19.1"/>
	
		<ellipse transform="matrix(0.3887 -0.9214 0.9214 0.3887 85.5162 534.2243)" class="st1" cx="445.3" cy="202.7" rx="19.1" ry="19.1"/>
	
		<ellipse transform="matrix(0.3887 -0.9214 0.9214 0.3887 -57.5547 779.0959)" class="st1" cx="558.3" cy="432.9" rx="19.1" ry="19.1"/>
	
		<ellipse transform="matrix(0.3887 -0.9214 0.9214 0.3887 -17.3162 859.4128)" class="st1" cx="639" cy="442.8" rx="14.3" ry="14.3"/>
	
		<ellipse transform="matrix(0.3887 -0.9214 0.9214 0.3887 369.3013 585.259)" class="st1" cx="625.7" cy="14.3" rx="14.3" ry="14.3"/>
	
		<ellipse transform="matrix(0.3887 -0.9214 0.9214 0.3887 -62.0325 624.239)" class="st1" cx="439.4" cy="358.9" rx="14.3" ry="14.3"/>
	
		<ellipse transform="matrix(0.3887 -0.9214 0.9214 0.3887 255.873 484.0378)" class="st1" cx="492.7" cy="49.2" rx="14.3" ry="14.3"/>
	
		<ellipse transform="matrix(0.3887 -0.9214 0.9214 0.3887 31.2001 504.5331)" class="st1" cx="395.8" cy="228.8" rx="14.3" ry="14.3"/>
	
		<ellipse transform="matrix(0.3887 -0.9214 0.9214 0.3887 12.1472 586.1687)" class="st1" cx="447.8" cy="283.9" rx="44.8" ry="44.8"/>
	
		<ellipse transform="matrix(0.3887 -0.9214 0.9214 0.3887 308.3851 846.7315)" class="st1" cx="792.3" cy="191" rx="44.8" ry="44.8"/>
	
		<ellipse transform="matrix(0.3887 -0.9214 0.9214 0.3887 167.5615 941.9028)" class="st1" cx="793.6" cy="344.7" rx="14.3" ry="14.3"/>
	
		<ellipse transform="matrix(0.3887 -0.9214 0.9214 0.3887 46.6955 684.5909)" class="st1" cx="539.3" cy="307.1" rx="14.3" ry="14.3"/>
</g>
<g>
	<path class="st2" d="M0,457.1V0h170.1c29.9,0,52.8,1.5,68.6,4.4c22.2,3.7,40.7,10.9,55.7,21.4s27,25.2,36.1,44.1
		s13.7,39.7,13.7,62.4c0,38.9-12.2,71.8-36.6,98.7s-68.5,40.4-132.3,40.4H59.7v185.8H0V457.1z M59.7,217.3h116.6
		c38.6,0,65.9-7.3,82.1-21.8c16.2-14.5,24.3-35,24.3-61.4c0-19.1-4.8-35.5-14.3-49.1s-22.1-22.6-37.7-27
		c-10.1-2.7-28.6-4.1-55.7-4.1H59.7V217.3z"/>
	<path class="st2" d="M911.2,457.1V0h200c40.2,0,70.8,4.1,91.7,12.3c20.9,8.2,37.6,22.7,50.1,43.5s18.8,43.8,18.8,68.9
		c0,32.4-10.4,59.8-31.1,82s-52.7,36.4-96,42.4c15.8,7.7,27.8,15.3,36,22.8c17.4,16.2,33.9,36.5,49.5,60.8l78.4,124.4h-75.1
		L1174,362c-17.4-27.4-31.8-48.4-43.1-63c-11.3-14.5-21.4-24.7-30.3-30.6c-8.9-5.8-18-9.9-27.2-12.2c-6.8-1.5-17.8-2.2-33.2-2.2H971
		v203h-59.8V457.1z M970.9,201.8h128.3c27.3,0,48.6-2.9,64-8.6c15.4-5.7,27.1-14.9,35.1-27.4c8-12.6,12-26.2,12-41
		c0-21.6-7.7-39.4-23.2-53.3s-39.9-20.9-73.4-20.9H970.9V201.8z"/>
	<path class="st2" d="M1366.6,457.1V0h326.1v53.9h-266.4v140h249.5v53.6h-249.5v155.6h276.9V457h-336.6V457.1z"/>
	<path class="st1" d="M1783.7,457.1V0h89.8l106.8,323.7c9.8,30.1,17,52.7,21.5,67.7c5.1-16.6,13.1-41.1,24-73.3L2133.8,0h80.3v457.1
		h-57.5V74.5l-131.1,382.6h-53.8L1841.3,68v389.2h-57.6L1783.7,457.1L1783.7,457.1z"/>
	<path class="st1" d="M2290.1,307.6l56.3-4.8c2.7,22.1,8.9,40.3,18.6,54.4c9.7,14.2,24.9,25.6,45.4,34.4
		c20.5,8.7,43.6,13.1,69.2,13.1c22.8,0,42.9-3.3,60.3-10c17.4-6.6,30.4-15.7,38.9-27.3c8.5-11.6,12.8-24.2,12.8-37.8
		c0-13.9-4.1-26-12.3-36.3c-8.2-10.4-21.7-19-40.6-26.1c-12.1-4.6-38.9-11.8-80.3-21.6c-41.4-9.7-70.5-18.9-87.1-27.6
		c-21.5-11.1-37.6-24.8-48.1-41.2c-10.6-16.4-15.8-34.7-15.8-55c0-22.3,6.5-43.2,19.4-62.6s31.8-34.1,56.6-44.2
		c24.7-10,52.3-15,82.7-15c33.4,0,62.9,5.3,88.4,15.8c25.5,10.6,45.2,26.1,58.9,46.6s21.1,43.7,22.2,69.7l-57.2,4.2
		c-3.1-27.9-13.5-49-31.2-63.3s-43.9-21.4-78.6-21.4c-36.1,0-62.4,6.5-78.9,19.4c-16.5,13-24.8,28.6-24.8,46.9
		c0,15.9,5.8,28.9,17.5,39.2c11.5,10.3,41.5,20.8,90,31.5c48.5,10.8,81.8,20.2,99.8,28.2c26.3,11.9,45.6,26.9,58.1,45.1
		s18.8,39.2,18.8,62.9c0,23.5-6.9,45.7-20.6,66.5c-13.7,20.8-33.5,37-59.2,48.5c-25.7,11.6-54.7,17.3-86.9,17.3
		c-40.8,0-75-5.8-102.6-17.5s-49.2-29.2-64.9-52.6C2299.2,363.6,2290.9,337.1,2290.1,307.6z"/>
</g>
<g>
	<path class="st1" d="M489.3,636.4h-23.6l-9.4-24.4h-42.9l-8.9,24.4h-23L423.3,529h22.9L489.3,636.4z M449.3,593.9l-14.8-39.8
		L420,593.9H449.3z"/>
	<path class="st1" d="M536.9,636.4V529h34.8c13.2,0,21.8,0.5,25.8,1.6c6.2,1.6,11.3,5.1,15.5,10.5c4.1,5.4,6.2,12.4,6.2,20.9
		c0,6.6-1.2,12.1-3.6,16.6c-2.4,4.5-5.4,8-9.1,10.6c-3.7,2.6-7.4,4.3-11.2,5.1c-5.2,1-12.7,1.5-22.5,1.5h-14.1v40.5H536.9z
		 M558.5,547.2v30.5h11.9c8.5,0,14.3-0.6,17.1-1.7c2.9-1.1,5.1-2.9,6.8-5.3c1.6-2.4,2.5-5.2,2.5-8.3c0-3.9-1.1-7.1-3.4-9.7
		c-2.3-2.5-5.2-4.1-8.7-4.8c-2.6-0.5-7.8-0.7-15.6-0.7H558.5z"/>
	<path class="st1" d="M632,596.4c0-6.8,1.7-13.5,5.1-19.8c3.4-6.4,8.1-11.3,14.3-14.6c6.2-3.4,13.1-5.1,20.7-5.1
		c11.8,0,21.4,3.8,28.9,11.5c7.5,7.6,11.3,17.3,11.3,29c0,11.8-3.8,21.5-11.4,29.3c-7.6,7.7-17.2,11.6-28.7,11.6
		c-7.1,0-13.9-1.6-20.4-4.8c-6.5-3.2-11.4-7.9-14.8-14.2C633.7,612.9,632,605.3,632,596.4z M653.1,597.5c0,7.7,1.8,13.6,5.5,17.7
		s8.2,6.2,13.5,6.2c5.4,0,9.9-2.1,13.5-6.2c3.6-4.1,5.5-10.1,5.5-17.9c0-7.6-1.8-13.5-5.5-17.6c-3.6-4.1-8.1-6.2-13.5-6.2
		c-5.4,0-9.9,2.1-13.5,6.2S653.1,589.8,653.1,597.5z"/>
	<path class="st1" d="M748.1,636.4h-20.6v-77.8h19.1v11.1c3.3-5.2,6.2-8.7,8.8-10.3c2.6-1.7,5.6-2.5,8.9-2.5c4.7,0,9.2,1.3,13.5,3.9
		l-6.4,17.9c-3.5-2.2-6.7-3.4-9.7-3.4c-2.9,0-5.3,0.8-7.3,2.4c-2,1.6-3.6,4.5-4.7,8.6c-1.1,4.2-1.7,12.8-1.7,26.1V636.4z"/>
	<path class="st1" d="M831.8,611.6l20.5,3.4c-2.6,7.5-6.8,13.2-12.5,17.2c-5.7,3.9-12.8,5.9-21.4,5.9c-13.5,0-23.5-4.4-30-13.3
		c-5.1-7.1-7.7-16-7.7-26.8c0-12.9,3.4-23,10.1-30.3c6.7-7.3,15.3-10.9,25.6-10.9c11.6,0,20.7,3.8,27.4,11.5
		c6.7,7.6,9.9,19.3,9.6,35.1h-51.6c0.1,6.1,1.8,10.9,5,14.2c3.2,3.4,7.1,5.1,11.9,5.1c3.2,0,5.9-0.9,8.1-2.6
		S830.7,615.6,831.8,611.6z M833,590.8c-0.1-6-1.7-10.5-4.6-13.6s-6.5-4.7-10.7-4.7c-4.5,0-8.2,1.6-11.1,4.9
		c-2.9,3.3-4.4,7.7-4.3,13.3H833z"/>
	<path class="st1" d="M962,596.9v-18.1h46.7v42.8c-4.5,4.4-11.1,8.3-19.7,11.6c-8.6,3.3-17.3,5-26.2,5c-11.2,0-21-2.4-29.4-7.1
		s-14.6-11.5-18.8-20.2c-4.2-8.8-6.3-18.3-6.3-28.6c0-11.2,2.3-21.1,7-29.8c4.7-8.7,11.5-15.4,20.6-20c6.9-3.6,15.5-5.3,25.7-5.3
		c13.3,0,23.7,2.8,31.2,8.4c7.5,5.6,12.3,13.3,14.5,23.2l-21.5,4c-1.5-5.3-4.4-9.4-8.5-12.5c-4.2-3.1-9.4-4.6-15.6-4.6
		c-9.5,0-17,3-22.6,9c-5.6,6-8.4,14.9-8.4,26.7c0,12.7,2.8,22.3,8.5,28.7c5.7,6.4,13.1,9.6,22.3,9.6c4.5,0,9.1-0.9,13.7-2.7
		c4.6-1.8,8.5-3.9,11.8-6.5v-13.6H962z"/>
	<path class="st1" d="M1073.6,611.6l20.5,3.4c-2.6,7.5-6.8,13.2-12.5,17.2c-5.7,3.9-12.8,5.9-21.3,5.9c-13.5,0-23.5-4.4-30-13.3
		c-5.1-7.1-7.7-16-7.7-26.8c0-12.9,3.4-23,10.1-30.3c6.7-7.3,15.3-10.9,25.6-10.9c11.6,0,20.7,3.8,27.4,11.5
		c6.7,7.6,9.9,19.3,9.6,35.1h-51.6c0.1,6.1,1.8,10.9,5,14.2c3.2,3.4,7.1,5.1,11.9,5.1c3.2,0,5.9-0.9,8.1-2.6
		S1072.5,615.6,1073.6,611.6z M1074.7,590.8c-0.1-6-1.7-10.5-4.6-13.6s-6.5-4.7-10.7-4.7c-4.5,0-8.2,1.6-11.1,4.9
		c-2.9,3.3-4.4,7.7-4.3,13.3H1074.7z"/>
	<path class="st1" d="M1182.7,636.4h-20.6v-39.7c0-8.4-0.4-13.8-1.3-16.3c-0.9-2.5-2.3-4.4-4.3-5.7c-2-1.4-4.4-2.1-7.1-2.1
		c-3.6,0-6.8,1-9.6,2.9c-2.8,2-4.8,4.5-5.8,7.8s-1.6,9.2-1.6,17.9v35.2h-20.6v-77.8h19.1V570c6.8-8.8,15.3-13.2,25.6-13.2
		c4.5,0,8.7,0.8,12.5,2.5c3.8,1.6,6.6,3.7,8.5,6.3c1.9,2.5,3.3,5.4,4,8.6s1.1,7.8,1.1,13.8V636.4z"/>
	<path class="st1" d="M1248.6,611.6l20.5,3.4c-2.6,7.5-6.8,13.2-12.5,17.2c-5.7,3.9-12.8,5.9-21.3,5.9c-13.5,0-23.5-4.4-30-13.3
		c-5.1-7.1-7.7-16-7.7-26.8c0-12.9,3.4-23,10.1-30.3c6.7-7.3,15.3-10.9,25.6-10.9c11.6,0,20.7,3.8,27.4,11.5
		c6.7,7.6,9.9,19.3,9.6,35.1h-51.6c0.1,6.1,1.8,10.9,5,14.2c3.2,3.4,7.1,5.1,11.9,5.1c3.2,0,5.9-0.9,8.1-2.6
		S1247.5,615.6,1248.6,611.6z M1249.8,590.8c-0.1-6-1.7-10.5-4.6-13.6s-6.5-4.7-10.7-4.7c-4.5,0-8.2,1.6-11.1,4.9
		c-2.9,3.3-4.4,7.7-4.3,13.3H1249.8z"/>
	<path class="st1" d="M1306.7,636.4h-20.6v-77.8h19.1v11.1c3.3-5.2,6.2-8.7,8.8-10.3c2.6-1.7,5.6-2.5,8.9-2.5
		c4.7,0,9.2,1.3,13.5,3.9l-6.4,17.9c-3.5-2.2-6.7-3.4-9.7-3.4c-2.9,0-5.3,0.8-7.3,2.4c-2,1.6-3.6,4.5-4.7,8.6
		c-1.1,4.2-1.7,12.8-1.7,26.1V636.4z"/>
	<path class="st1" d="M1360.8,582.4l-18.7-3.4c2.1-7.5,5.7-13.1,10.8-16.7c5.1-3.6,12.7-5.4,22.9-5.4c9.2,0,16,1.1,20.5,3.3
		c4.5,2.2,7.7,4.9,9.5,8.3c1.8,3.3,2.7,9.5,2.7,18.4l-0.2,24c0,6.8,0.3,11.9,1,15.1c0.7,3.2,1.9,6.7,3.7,10.4h-20.4
		c-0.5-1.4-1.2-3.4-2-6.1c-0.3-1.2-0.6-2-0.7-2.4c-3.5,3.4-7.3,6-11.3,7.7c-4,1.7-8.3,2.6-12.8,2.6c-8,0-14.3-2.2-18.9-6.5
		c-4.6-4.3-6.9-9.8-6.9-16.5c0-4.4,1-8.3,3.1-11.8c2.1-3.4,5-6.1,8.8-7.9c3.8-1.8,9.2-3.4,16.4-4.8c9.6-1.8,16.3-3.5,20-5.1v-2.1
		c0-4-1-6.8-2.9-8.5c-2-1.7-5.6-2.5-11.1-2.5c-3.7,0-6.5,0.7-8.6,2.2S1362,578.7,1360.8,582.4z M1388.3,599.1
		c-2.6,0.9-6.8,1.9-12.5,3.1c-5.7,1.2-9.4,2.4-11.2,3.6c-2.7,1.9-4,4.3-4,7.3c0,2.9,1.1,5.4,3.2,7.5c2.1,2.1,4.9,3.1,8.2,3.1
		c3.7,0,7.3-1.2,10.6-3.7c2.5-1.9,4.1-4.1,4.9-6.8c0.5-1.8,0.8-5.1,0.8-10V599.1z"/>
	<path class="st1" d="M1464.5,558.6V575h-14.1v31.3c0,6.3,0.1,10,0.4,11.1c0.3,1.1,0.9,1.9,1.8,2.6c1,0.7,2.1,1,3.5,1
		c1.9,0,4.7-0.7,8.3-2l1.8,16c-4.8,2.1-10.2,3.1-16.3,3.1c-3.7,0-7.1-0.6-10-1.9c-3-1.2-5.2-2.9-6.6-4.8c-1.4-2-2.4-4.7-2.9-8
		c-0.4-2.4-0.7-7.2-0.7-14.5V575h-9.4v-16.4h9.4v-15.5l20.7-12v27.5H1464.5z"/>
	<path class="st1" d="M1474,596.4c0-6.8,1.7-13.5,5.1-19.8c3.4-6.4,8.1-11.3,14.3-14.6c6.2-3.4,13.1-5.1,20.7-5.1
		c11.8,0,21.4,3.8,28.9,11.5c7.5,7.6,11.3,17.3,11.3,29c0,11.8-3.8,21.5-11.4,29.3c-7.6,7.7-17.2,11.6-28.7,11.6
		c-7.1,0-13.9-1.6-20.4-4.8c-6.5-3.2-11.4-7.9-14.8-14.2C1475.7,612.9,1474,605.3,1474,596.4z M1495.1,597.5
		c0,7.7,1.8,13.6,5.5,17.7s8.2,6.2,13.5,6.2c5.4,0,9.9-2.1,13.5-6.2c3.6-4.1,5.5-10.1,5.5-17.9c0-7.6-1.8-13.5-5.5-17.6
		c-3.6-4.1-8.1-6.2-13.5-6.2c-5.4,0-9.9,2.1-13.5,6.2S1495.1,589.8,1495.1,597.5z"/>
	<path class="st1" d="M1590.1,636.4h-20.6v-77.8h19.1v11.1c3.3-5.2,6.2-8.7,8.8-10.3c2.6-1.7,5.6-2.5,8.9-2.5
		c4.7,0,9.2,1.3,13.5,3.9l-6.4,17.9c-3.5-2.2-6.7-3.4-9.7-3.4c-2.9,0-5.3,0.8-7.3,2.4c-2,1.6-3.6,4.5-4.7,8.6
		c-1.1,4.2-1.7,12.8-1.7,26.1V636.4z"/>
	<path class="st1" d="M1661.4,558.6h11.4v-5.9c0-6.5,0.7-11.4,2.1-14.6c1.4-3.2,4-5.8,7.7-7.9c3.7-2,8.5-3,14.2-3
		c5.9,0,11.6,0.9,17.2,2.6l-2.8,14.4c-3.3-0.8-6.4-1.2-9.4-1.2c-3,0-5.1,0.7-6.4,2.1c-1.3,1.4-1.9,4.1-1.9,8v5.5h15.4v16.2h-15.4
		v61.6h-20.6v-61.6h-11.4V558.6z"/>
	<path class="st1" d="M1715.6,596.4c0-6.8,1.7-13.5,5.1-19.8c3.4-6.4,8.1-11.3,14.3-14.6c6.2-3.4,13.1-5.1,20.7-5.1
		c11.8,0,21.4,3.8,28.9,11.5c7.5,7.6,11.3,17.3,11.3,29c0,11.8-3.8,21.5-11.4,29.3c-7.6,7.7-17.2,11.6-28.7,11.6
		c-7.1,0-13.9-1.6-20.4-4.8c-6.5-3.2-11.4-7.9-14.8-14.2C1717.3,612.9,1715.6,605.3,1715.6,596.4z M1736.7,597.5
		c0,7.7,1.8,13.6,5.5,17.7s8.2,6.2,13.5,6.2c5.4,0,9.9-2.1,13.5-6.2c3.6-4.1,5.5-10.1,5.5-17.9c0-7.6-1.8-13.5-5.5-17.6
		c-3.6-4.1-8.1-6.2-13.5-6.2c-5.4,0-9.9,2.1-13.5,6.2S1736.7,589.8,1736.7,597.5z"/>
	<path class="st1" d="M1831.7,636.4h-20.6v-77.8h19.1v11.1c3.3-5.2,6.2-8.7,8.8-10.3c2.6-1.7,5.6-2.5,8.9-2.5
		c4.7,0,9.2,1.3,13.5,3.9l-6.4,17.9c-3.5-2.2-6.7-3.4-9.7-3.4c-2.9,0-5.3,0.8-7.3,2.4c-2,1.6-3.6,4.5-4.7,8.6
		c-1.1,4.2-1.7,12.8-1.7,26.1V636.4z"/>
	<path class="st2" d="M1911.9,636.4V529h32.4l19.5,73.2l19.3-73.2h32.5v107.4h-20.1v-84.5l-21.3,84.5h-20.9l-21.2-84.5v84.5H1911.9z
		"/>
	<path class="st2" d="M2032.2,596.4c0-6.8,1.7-13.5,5.1-19.8c3.4-6.4,8.1-11.3,14.3-14.6c6.2-3.4,13.1-5.1,20.7-5.1
		c11.8,0,21.4,3.8,28.9,11.5c7.5,7.6,11.3,17.3,11.3,29c0,11.8-3.8,21.5-11.4,29.3c-7.6,7.7-17.2,11.6-28.7,11.6
		c-7.1,0-13.9-1.6-20.4-4.8c-6.5-3.2-11.4-7.9-14.8-14.2C2033.9,612.9,2032.2,605.3,2032.2,596.4z M2053.3,597.5
		c0,7.7,1.8,13.6,5.5,17.7s8.2,6.2,13.5,6.2c5.4,0,9.9-2.1,13.5-6.2c3.6-4.1,5.5-10.1,5.5-17.9c0-7.6-1.8-13.5-5.5-17.6
		c-3.6-4.1-8.1-6.2-13.5-6.2c-5.4,0-9.9,2.1-13.5,6.2S2053.3,589.8,2053.3,597.5z"/>
	<path class="st2" d="M2128.6,636.4V529h20.6v107.4H2128.6z"/>
	<path class="st2" d="M2215.3,611.6l20.5,3.4c-2.6,7.5-6.8,13.2-12.5,17.2c-5.7,3.9-12.8,5.9-21.3,5.9c-13.5,0-23.5-4.4-30-13.3
		c-5.1-7.1-7.7-16-7.7-26.8c0-12.9,3.4-23,10.1-30.3c6.7-7.3,15.3-10.9,25.6-10.9c11.6,0,20.7,3.8,27.4,11.5
		c6.7,7.6,9.9,19.3,9.6,35.1h-51.6c0.1,6.1,1.8,10.9,5,14.2c3.2,3.4,7.1,5.1,11.9,5.1c3.2,0,5.9-0.9,8.1-2.6
		S2214.2,615.6,2215.3,611.6z M2216.5,590.8c-0.1-6-1.7-10.5-4.6-13.6s-6.5-4.7-10.7-4.7c-4.5,0-8.2,1.6-11.1,4.9
		c-2.9,3.3-4.4,7.7-4.3,13.3H2216.5z"/>
	<path class="st2" d="M2321.6,581.6l-20.3,3.7c-0.7-4.1-2.2-7.1-4.7-9.2c-2.4-2.1-5.6-3.1-9.4-3.1c-5.1,0-9.2,1.8-12.3,5.3
		c-3.1,3.5-4.6,9.5-4.6,17.8c0,9.2,1.5,15.7,4.7,19.6s7.3,5.7,12.5,5.7c3.9,0,7.1-1.1,9.6-3.3c2.5-2.2,4.2-6,5.3-11.5l20.2,3.4
		c-2.1,9.3-6.1,16.3-12.1,21c-6,4.7-13.9,7.1-24,7.1c-11.4,0-20.4-3.6-27.2-10.8s-10.1-17.1-10.1-29.8c0-12.8,3.4-22.8,10.2-30
		c6.8-7.2,16-10.7,27.5-10.7c9.5,0,17,2,22.6,6.1C2315.1,567.1,2319.1,573.3,2321.6,581.6z"/>
	<path class="st2" d="M2388.3,636.4v-11.6c-2.8,4.2-6.6,7.4-11.2,9.8c-4.6,2.4-9.5,3.6-14.6,3.6c-5.2,0-9.9-1.1-14.1-3.4
		c-4.2-2.3-7.2-5.5-9-9.7c-1.9-4.1-2.8-9.9-2.8-17.2v-49.2h20.6v35.7c0,10.9,0.4,17.6,1.1,20.1s2.1,4.4,4.1,5.9
		c2,1.4,4.5,2.2,7.6,2.2c3.5,0,6.7-1,9.4-2.9s4.7-4.3,5.7-7.2c1-2.9,1.5-9.9,1.5-21v-32.8h20.6v77.8H2388.3z"/>
	<path class="st2" d="M2428.8,636.4V529h20.6v107.4H2428.8z"/>
	<path class="st2" d="M2485.8,582.4l-18.7-3.4c2.1-7.5,5.7-13.1,10.8-16.7c5.1-3.6,12.7-5.4,22.9-5.4c9.2,0,16,1.1,20.5,3.3
		c4.5,2.2,7.7,4.9,9.5,8.3c1.8,3.3,2.7,9.5,2.7,18.4l-0.2,24c0,6.8,0.3,11.9,1,15.1c0.7,3.2,1.9,6.7,3.7,10.4h-20.4
		c-0.5-1.4-1.2-3.4-2-6.1c-0.3-1.2-0.6-2-0.7-2.4c-3.5,3.4-7.3,6-11.3,7.7c-4,1.7-8.3,2.6-12.8,2.6c-8,0-14.3-2.2-18.9-6.5
		c-4.6-4.3-6.9-9.8-6.9-16.5c0-4.4,1-8.3,3.1-11.8c2.1-3.4,5-6.1,8.8-7.9c3.8-1.8,9.2-3.4,16.4-4.8c9.6-1.8,16.3-3.5,20-5.1v-2.1
		c0-4-1-6.8-2.9-8.5c-2-1.7-5.6-2.5-11.1-2.5c-3.7,0-6.5,0.7-8.6,2.2S2487.1,578.7,2485.8,582.4z M2513.4,599.1
		c-2.6,0.9-6.8,1.9-12.5,3.1c-5.7,1.2-9.4,2.4-11.2,3.6c-2.7,1.9-4,4.3-4,7.3c0,2.9,1.1,5.4,3.2,7.5c2.1,2.1,4.9,3.1,8.2,3.1
		c3.7,0,7.3-1.2,10.6-3.7c2.5-1.9,4.1-4.1,4.9-6.8c0.5-1.8,0.8-5.1,0.8-10V599.1z"/>
	<path class="st2" d="M2573.6,636.4H2553v-77.8h19.1v11.1c3.3-5.2,6.2-8.7,8.8-10.3c2.6-1.7,5.6-2.5,8.9-2.5c4.7,0,9.2,1.3,13.5,3.9
		l-6.4,17.9c-3.5-2.2-6.7-3.4-9.7-3.4c-2.9,0-5.3,0.8-7.3,2.4c-2,1.6-3.6,4.5-4.7,8.6c-1.1,4.2-1.7,12.8-1.7,26.1V636.4z"/>
	<path class="st2" d="M2648.6,601.5l21.1-2.1c1.3,7.1,3.8,12.3,7.7,15.6c3.9,3.3,9.1,5,15.7,5c7,0,12.2-1.5,15.8-4.4
		c3.5-3,5.3-6.4,5.3-10.4c0-2.5-0.7-4.7-2.2-6.5c-1.5-1.8-4.1-3.3-7.8-4.7c-2.5-0.9-8.3-2.4-17.4-4.7c-11.6-2.9-19.8-6.4-24.5-10.6
		c-6.6-5.9-9.9-13.1-9.9-21.6c0-5.5,1.5-10.6,4.7-15.3c3.1-4.8,7.6-8.4,13.4-10.9s12.9-3.7,21.1-3.7c13.5,0,23.6,3,30.4,8.9
		c6.8,5.9,10.4,13.8,10.7,23.7l-21.7,1c-0.9-5.5-2.9-9.5-6-11.9c-3.1-2.4-7.6-3.6-13.7-3.6c-6.3,0-11.2,1.3-14.8,3.9
		c-2.3,1.7-3.4,3.9-3.4,6.7c0,2.5,1.1,4.7,3.2,6.5c2.7,2.3,9.4,4.7,19.9,7.2s18.3,5.1,23.4,7.7c5.1,2.7,9,6.3,11.9,10.9
		c2.9,4.6,4.3,10.3,4.3,17.1c0,6.2-1.7,11.9-5.1,17.3c-3.4,5.4-8.3,9.4-14.5,12c-6.3,2.6-14,3.9-23.4,3.9c-13.6,0-24-3.1-31.3-9.4
		C2654.3,622.6,2650,613.5,2648.6,601.5z"/>
	<path class="st2" d="M2754,548.1v-19h20.6v19H2754z M2754,636.4v-77.8h20.6v77.8H2754z"/>
	<path class="st2" d="M2794.1,558.6h19v10.6c6.8-8.3,14.9-12.4,24.2-12.4c5,0,9.3,1,13,3.1s6.7,5.2,9,9.3c3.4-4.1,7.1-7.3,11.1-9.3
		s8.2-3.1,12.7-3.1c5.7,0,10.5,1.2,14.5,3.5c4,2.3,6.9,5.7,8.9,10.2c1.4,3.3,2.1,8.7,2.1,16.1v49.7h-20.6v-44.5
		c0-7.7-0.7-12.7-2.1-14.9c-1.9-2.9-4.8-4.4-8.8-4.4c-2.9,0-5.6,0.9-8.1,2.6c-2.5,1.8-4.4,4.3-5.5,7.7c-1.1,3.4-1.7,8.8-1.7,16.1
		v37.4h-20.6v-42.6c0-7.6-0.4-12.5-1.1-14.6s-1.9-3.8-3.4-4.9c-1.5-1.1-3.6-1.6-6.3-1.6c-3.2,0-6,0.9-8.6,2.6
		c-2.5,1.7-4.4,4.2-5.5,7.4c-1.1,3.2-1.6,8.6-1.6,16v37.8h-20.6V558.6z"/>
	<path class="st2" d="M2980.2,636.4v-11.6c-2.8,4.2-6.6,7.4-11.2,9.8c-4.6,2.4-9.5,3.6-14.6,3.6c-5.2,0-9.9-1.1-14.1-3.4
		c-4.2-2.3-7.2-5.5-9-9.7c-1.9-4.1-2.8-9.9-2.8-17.2v-49.2h20.6v35.7c0,10.9,0.4,17.6,1.1,20.1s2.1,4.4,4.1,5.9
		c2,1.4,4.5,2.2,7.6,2.2c3.5,0,6.7-1,9.4-2.9s4.7-4.3,5.7-7.2c1-2.9,1.5-9.9,1.5-21v-32.8h20.6v77.8H2980.2z"/>
	<path class="st2" d="M3020.6,636.4V529h20.6v107.4H3020.6z"/>
	<path class="st2" d="M3077.7,582.4L3059,579c2.1-7.5,5.7-13.1,10.8-16.7c5.1-3.6,12.7-5.4,22.9-5.4c9.2,0,16,1.1,20.5,3.3
		c4.5,2.2,7.7,4.9,9.5,8.3c1.8,3.3,2.7,9.5,2.7,18.4l-0.2,24c0,6.8,0.3,11.9,1,15.1c0.7,3.2,1.9,6.7,3.7,10.4h-20.4
		c-0.5-1.4-1.2-3.4-2-6.1c-0.3-1.2-0.6-2-0.7-2.4c-3.5,3.4-7.3,6-11.3,7.7c-4,1.7-8.3,2.6-12.8,2.6c-8,0-14.3-2.2-18.9-6.5
		c-4.6-4.3-6.9-9.8-6.9-16.5c0-4.4,1-8.3,3.1-11.8c2.1-3.4,5-6.1,8.8-7.9c3.8-1.8,9.2-3.4,16.4-4.8c9.6-1.8,16.3-3.5,20-5.1v-2.1
		c0-4-1-6.8-2.9-8.5c-2-1.7-5.6-2.5-11.1-2.5c-3.7,0-6.5,0.7-8.6,2.2S3079,578.7,3077.7,582.4z M3105.2,599.1
		c-2.6,0.9-6.8,1.9-12.5,3.1c-5.7,1.2-9.4,2.4-11.2,3.6c-2.7,1.9-4,4.3-4,7.3c0,2.9,1.1,5.4,3.2,7.5c2.1,2.1,4.9,3.1,8.2,3.1
		c3.7,0,7.3-1.2,10.6-3.7c2.5-1.9,4.1-4.1,4.9-6.8c0.5-1.8,0.8-5.1,0.8-10V599.1z"/>
	<path class="st2" d="M3181.4,558.6V575h-14.1v31.3c0,6.3,0.1,10,0.4,11.1c0.3,1.1,0.9,1.9,1.8,2.6c1,0.7,2.1,1,3.5,1
		c1.9,0,4.7-0.7,8.3-2l1.8,16c-4.8,2.1-10.2,3.1-16.3,3.1c-3.7,0-7.1-0.6-10-1.9c-3-1.2-5.2-2.9-6.6-4.8c-1.4-2-2.4-4.7-2.9-8
		c-0.4-2.4-0.7-7.2-0.7-14.5V575h-9.4v-16.4h9.4v-15.5l20.7-12v27.5H3181.4z"/>
	<path class="st2" d="M3195.7,548.1v-19h20.6v19H3195.7z M3195.7,636.4v-77.8h20.6v77.8H3195.7z"/>
	<path class="st2" d="M3232.6,596.4c0-6.8,1.7-13.5,5.1-19.8c3.4-6.4,8.1-11.3,14.3-14.6c6.2-3.4,13.1-5.1,20.7-5.1
		c11.8,0,21.4,3.8,28.9,11.5c7.5,7.6,11.3,17.3,11.3,29c0,11.8-3.8,21.5-11.4,29.3c-7.6,7.7-17.2,11.6-28.7,11.6
		c-7.1,0-13.9-1.6-20.4-4.8c-6.5-3.2-11.4-7.9-14.8-14.2C3234.3,612.9,3232.6,605.3,3232.6,596.4z M3253.7,597.5
		c0,7.7,1.8,13.6,5.5,17.7s8.2,6.2,13.5,6.2c5.4,0,9.9-2.1,13.5-6.2c3.6-4.1,5.5-10.1,5.5-17.9c0-7.6-1.8-13.5-5.5-17.6
		c-3.6-4.1-8.1-6.2-13.5-6.2c-5.4,0-9.9,2.1-13.5,6.2S3253.7,589.8,3253.7,597.5z"/>
	<path class="st2" d="M3399.7,636.4h-20.6v-39.7c0-8.4-0.4-13.8-1.3-16.3c-0.9-2.5-2.3-4.4-4.3-5.7c-2-1.4-4.4-2.1-7.1-2.1
		c-3.6,0-6.8,1-9.6,2.9c-2.8,2-4.8,4.5-5.8,7.8s-1.6,9.2-1.6,17.9v35.2h-20.6v-77.8h19.1V570c6.8-8.8,15.3-13.2,25.6-13.2
		c4.5,0,8.7,0.8,12.5,2.5c3.8,1.6,6.6,3.7,8.5,6.3c1.9,2.5,3.3,5.4,4,8.6s1.1,7.8,1.1,13.8V636.4z"/>
	<path class="st2" d="M3413.4,614.2l20.7-3.1c0.9,4,2.7,7,5.3,9.1c2.7,2.1,6.4,3.1,11.3,3.1c5.3,0,9.3-1,12-2.9
		c1.8-1.4,2.7-3.2,2.7-5.5c0-1.6-0.5-2.9-1.5-3.9c-1-1-3.3-1.9-6.9-2.7c-16.6-3.7-27.1-7-31.6-10c-6.2-4.2-9.2-10-9.2-17.5
		c0-6.7,2.7-12.4,8-17c5.3-4.6,13.6-6.9,24.8-6.9c10.6,0,18.6,1.7,23.7,5.2c5.2,3.5,8.7,8.6,10.7,15.4L3464,581
		c-0.8-3-2.4-5.3-4.7-7c-2.3-1.6-5.6-2.4-9.9-2.4c-5.4,0-9.3,0.8-11.6,2.3c-1.6,1.1-2.3,2.5-2.3,4.2c0,1.5,0.7,2.7,2.1,3.7
		c1.9,1.4,8.3,3.3,19.2,5.8c11,2.5,18.6,5.5,23,9.2c4.3,3.7,6.4,8.8,6.4,15.3c0,7.1-3,13.3-8.9,18.4c-6,5.1-14.8,7.7-26.4,7.7
		c-10.6,0-19-2.1-25.2-6.4C3419.3,627.4,3415.3,621.6,3413.4,614.2z"/>
</g>
</svg>
