<?xml version="1.0" encoding="utf-8"?>
<!-- Generator: Adobe Illustrator 21.0.0, SVG Export Plug-In . SVG Version: 6.00 Build 0)  -->
<svg version="1.1" id="Layer_1" xmlns="http://www.w3.org/2000/svg" xmlns:xlink="http://www.w3.org/1999/xlink" x="0px" y="0px"
	 viewBox="0 0 2649.1 457.1" style="enable-background:new 0 0 2649.1 457.1;" xml:space="preserve">
<style type="text/css">
	.st0{fill:none;stroke:#0E5477;stroke-width:6;stroke-miterlimit:10;}
	.st1{fill:#0E5477;}
	.st2{fill:#046D8B;}
</style>
<g>
	<line class="st0" x1="416.4" y1="149" x2="469.7" y2="101.4"/>
	<line class="st0" x1="512.6" y1="178.4" x2="469.7" y2="101.4"/>
	<line class="st0" x1="542.1" y1="90.9" x2="469.7" y2="101.4"/>
	<line class="st0" x1="555.2" y1="33.2" x2="613.1" y2="111.4"/>
	<line class="st0" x1="555.2" y1="33.2" x2="492.7" y2="49.2"/>
	<line class="st0" x1="625.7" y1="14.3" x2="696.3" y2="44.1"/>
	<line class="st0" x1="613.1" y1="111.4" x2="696.3" y2="44.1"/>
	<line class="st0" x1="768.9" y1="100.1" x2="678" y2="140.7"/>
	<line class="st0" x1="792.3" y1="191" x2="768.9" y2="100.1"/>
	<line class="st0" x1="817.1" y1="273.7" x2="792.3" y2="191"/>
	<line class="st0" x1="713.1" y1="273.7" x2="792.3" y2="191"/>
	<line class="st0" x1="793.5" y1="344.7" x2="713.1" y2="273.7"/>
	<line class="st0" x1="716.5" y1="381.8" x2="616.9" y2="346.7"/>
	<line class="st0" x1="713.1" y1="273.7" x2="616.9" y2="346.7"/>
	<line class="st0" x1="638.9" y1="442.8" x2="716.5" y2="381.8"/>
	<line class="st0" x1="558.3" y1="432.9" x2="616.9" y2="346.7"/>
	<line class="st0" x1="490" y1="393" x2="558.3" y2="432.9"/>
	<line class="st0" x1="439.4" y1="358.9" x2="447.8" y2="283.9"/>
	<line class="st0" x1="539.2" y1="307.1" x2="447.8" y2="283.9"/>
	<line class="st0" x1="512.6" y1="178.4" x2="447.8" y2="283.9"/>
	<line class="st0" x1="445.4" y1="202.7" x2="447.8" y2="283.9"/>
	<line class="st0" x1="395.8" y1="228.8" x2="445.4" y2="202.7"/>
</g>
<g>
	
		<ellipse transform="matrix(0.3887 -0.9214 0.9214 0.3887 86.1991 893.5444)" class="st1" cx="716.5" cy="381.8" rx="44.8" ry="44.8"/>
	
		<ellipse transform="matrix(0.3887 -0.9214 0.9214 0.3887 377.8401 769.6616)" class="st1" cx="768.9" cy="100.1" rx="25.9" ry="25.9"/>
	
		<ellipse transform="matrix(0.3887 -0.9214 0.9214 0.3887 385.0443 668.4984)" class="st1" cx="696.3" cy="44.1" rx="26.1" ry="25.9"/>
	
		<ellipse transform="matrix(0.3887 -0.9214 0.9214 0.3887 272.1335 633.0518)" class="st1" cx="613.1" cy="111.4" rx="25.9" ry="25.9"/>
	
		<ellipse transform="matrix(0.3887 -0.9214 0.9214 0.3887 308.8548 531.772)" class="st1" cx="555.2" cy="33.1" rx="25.9" ry="25.9"/>
	
		<ellipse transform="matrix(0.3887 -0.9214 0.9214 0.3887 -62.5499 691.7851)" class="st1" cx="490.1" cy="393" rx="25.9" ry="25.9"/>
	
		<ellipse transform="matrix(0.3887 -0.9214 0.9214 0.3887 193.7409 494.742)" class="st1" cx="469.7" cy="101.4" rx="25.9" ry="25.9"/>
	
		<ellipse transform="matrix(0.3887 -0.9214 0.9214 0.3887 57.7076 780.3266)" class="st1" cx="616.9" cy="346.7" rx="25.9" ry="25.9"/>
	
		<ellipse transform="matrix(0.3887 -0.9214 0.9214 0.3887 184.4529 823.8356)" class="st1" cx="713.1" cy="272.9" rx="19.1" ry="19.1"/>
	
		<ellipse transform="matrix(0.3887 -0.9214 0.9214 0.3887 247.3863 920.2004)" class="st1" cx="817.2" cy="273.7" rx="19.1" ry="19.1"/>
	
		<ellipse transform="matrix(0.3887 -0.9214 0.9214 0.3887 284.8233 710.7236)" class="st1" cx="678" cy="140.7" rx="19.1" ry="19.1"/>
	
		<ellipse transform="matrix(0.3887 -0.9214 0.9214 0.3887 149.0052 581.389)" class="st1" cx="512.6" cy="178.4" rx="19.1" ry="19.1"/>
	
		<ellipse transform="matrix(0.3887 -0.9214 0.9214 0.3887 247.6403 555.0571)" class="st1" cx="542.1" cy="90.9" rx="19.1" ry="19.1"/>
	
		<ellipse transform="matrix(0.3887 -0.9214 0.9214 0.3887 117.2319 474.821)" class="st1" cx="416.4" cy="149.1" rx="19.1" ry="19.1"/>
	
		<ellipse transform="matrix(0.3887 -0.9214 0.9214 0.3887 85.4544 534.2693)" class="st1" cx="445.4" cy="202.7" rx="19.1" ry="19.1"/>
	
		<ellipse transform="matrix(0.3887 -0.9214 0.9214 0.3887 -57.5365 779.0705)" class="st1" cx="558.3" cy="432.9" rx="19.1" ry="19.1"/>
	
		<ellipse transform="matrix(0.3887 -0.9214 0.9214 0.3887 -17.3804 859.4141)" class="st1" cx="639" cy="442.8" rx="14.3" ry="14.3"/>
	
		<ellipse transform="matrix(0.3887 -0.9214 0.9214 0.3887 369.3158 585.2858)" class="st1" cx="625.7" cy="14.3" rx="14.3" ry="14.3"/>
	
		<ellipse transform="matrix(0.3887 -0.9214 0.9214 0.3887 -62.0754 624.2258)" class="st1" cx="439.4" cy="358.9" rx="14.3" ry="14.3"/>
	
		<ellipse transform="matrix(0.3887 -0.9214 0.9214 0.3887 255.8617 484.043)" class="st1" cx="492.7" cy="49.2" rx="14.3" ry="14.3"/>
	
		<ellipse transform="matrix(0.3887 -0.9214 0.9214 0.3887 31.1521 504.5097)" class="st1" cx="395.8" cy="228.8" rx="14.3" ry="14.3"/>
	
		<ellipse transform="matrix(0.3887 -0.9214 0.9214 0.3887 12.1646 586.1812)" class="st1" cx="447.8" cy="283.9" rx="44.8" ry="44.8"/>
	
		<ellipse transform="matrix(0.3887 -0.9214 0.9214 0.3887 308.3344 846.7505)" class="st1" cx="792.3" cy="191" rx="44.8" ry="44.8"/>
	
		<ellipse transform="matrix(0.3887 -0.9214 0.9214 0.3887 167.5191 941.9153)" class="st1" cx="793.6" cy="344.7" rx="14.3" ry="14.3"/>
	
		<ellipse transform="matrix(0.3887 -0.9214 0.9214 0.3887 46.706 684.5549)" class="st1" cx="539.2" cy="307.1" rx="14.3" ry="14.3"/>
</g>
<g>
	<path class="st2" d="M0,457.1V0h170.1c29.9,0,52.8,1.5,68.6,4.4c22.2,3.7,40.7,10.9,55.7,21.4s27,25.2,36.1,44.1
		s13.7,39.7,13.7,62.4c0,38.9-12.2,71.8-36.6,98.7s-68.5,40.4-132.3,40.4H59.7v185.8H0V457.1z M59.7,217.3h116.6
		c38.6,0,65.9-7.3,82.1-21.8c16.2-14.5,24.3-35,24.3-61.4c0-19.1-4.8-35.5-14.3-49.1s-22.1-22.6-37.7-27
		c-10.1-2.7-28.6-4.1-55.7-4.1H59.7V217.3z"/>
	<path class="st2" d="M911.2,457.1V0h200c40.2,0,70.8,4.1,91.7,12.3c20.9,8.2,37.6,22.7,50.1,43.5s18.8,43.8,18.8,68.9
		c0,32.4-10.4,59.8-31.1,82s-52.7,36.4-96,42.4c15.8,7.7,27.8,15.3,36,22.8c17.4,16.2,33.9,36.5,49.5,60.8l78.4,124.4h-75.1
		L1174,362c-17.4-27.4-31.8-48.4-43.1-63c-11.3-14.5-21.4-24.7-30.3-30.6c-8.9-5.8-18-9.9-27.2-12.2c-6.8-1.5-17.8-2.2-33.2-2.2H971
		v203h-59.8V457.1z M970.9,201.8h128.3c27.3,0,48.6-2.9,64-8.6c15.4-5.7,27.1-14.9,35.1-27.4c8-12.6,12-26.2,12-41
		c0-21.6-7.7-39.4-23.2-53.3s-39.9-20.9-73.4-20.9H970.9V201.8z"/>
	<path class="st2" d="M1366.6,457.1V0h326.1v53.9h-266.4v140h249.5v53.6h-249.5v155.6h276.9V457h-336.6V457.1z"/>
	<path class="st1" d="M1783.7,457.1V0h89.8l106.8,323.7c9.8,30.1,17,52.7,21.5,67.7c5.1-16.6,13.1-41.1,24-73.3L2133.8,0h80.3v457.1
		h-57.5V74.5l-131.1,382.6h-53.8L1841.3,68v389.2h-57.6L1783.7,457.1L1783.7,457.1z"/>
	<path class="st1" d="M2290.1,307.6l56.3-4.8c2.7,22.1,8.9,40.3,18.6,54.4c9.7,14.2,24.9,25.6,45.4,34.4
		c20.5,8.7,43.6,13.1,69.2,13.1c22.8,0,42.9-3.3,60.3-10c17.4-6.6,30.4-15.7,38.9-27.3c8.5-11.6,12.8-24.2,12.8-37.8
		c0-13.9-4.1-26-12.3-36.3c-8.2-10.4-21.7-19-40.6-26.1c-12.1-4.6-38.9-11.8-80.3-21.6c-41.4-9.7-70.5-18.9-87.1-27.6
		c-21.5-11.1-37.6-24.8-48.1-41.2c-10.6-16.4-15.8-34.7-15.8-55c0-22.3,6.5-43.2,19.4-62.6s31.8-34.1,56.6-44.2
		c24.7-10,52.3-15,82.7-15c33.4,0,62.9,5.3,88.4,15.8c25.5,10.6,45.2,26.1,58.9,46.6s21.1,43.7,22.2,69.7l-57.2,4.2
		c-3.1-27.9-13.5-49-31.2-63.3s-43.9-21.4-78.6-21.4c-36.1,0-62.4,6.5-78.9,19.4c-16.5,13-24.8,28.6-24.8,46.9
		c0,15.9,5.8,28.9,17.5,39.2c11.5,10.3,41.5,20.8,90,31.5c48.5,10.8,81.8,20.2,99.8,28.2c26.3,11.9,45.6,26.9,58.1,45.1
		s18.8,39.2,18.8,62.9c0,23.5-6.9,45.7-20.6,66.5c-13.7,20.8-33.5,37-59.2,48.5c-25.7,11.6-54.7,17.3-86.9,17.3
		c-40.8,0-75-5.8-102.6-17.5s-49.2-29.2-64.9-52.6C2299.2,363.6,2290.9,337.1,2290.1,307.6z"/>
</g>
</svg>
